<svg width="1920" height="860" viewBox="0 0 1920 860" fill="none" xmlns="http://www.w3.org/2000/svg">
<g filter="url(#filter0_b_195_370)">
<rect width="1920" height="860" transform="matrix(1 0 0 -1 0 860)" fill="white"/>
</g>
<mask id="mask0_195_370" style="mask-type:alpha" maskUnits="userSpaceOnUse" x="0" y="0" width="1920" height="860">
<rect width="1920" height="860" fill="white"/>
</mask>
<g mask="url(#mask0_195_370)">
<g filter="url(#filter1_f_195_370)">
<circle cx="351.5" cy="38.5" r="474.5" fill="#FA5F1A" fill-opacity="0.08"/>
</g>
<g opacity="0.72">
<g opacity="0.12" clip-path="url(#clip0_195_370)">
<path d="M1789.1 342.824C1783.61 341.768 1785.94 341.979 1772.43 353.166C1770.53 354.644 1770.74 357.388 1773.06 358.443C1784.46 363.509 1807.89 371.319 1808.52 371.53C1810 371.952 1811.47 371.952 1812.95 372.163C1814.22 372.163 1814.85 371.53 1815.27 370.685C1822.87 353.166 1842.92 354.011 1789.1 342.824ZM1820.55 359.499C1818.44 362.665 1816.33 366.042 1814.22 369.419C1813.58 370.474 1812.95 371.108 1811.68 370.897C1809.57 370.685 1807.67 370.052 1805.78 369.208C1801.13 367.519 1796.7 365.831 1792.06 364.353C1774.12 358.021 1768.63 358.232 1775.17 352.322C1777.07 350.633 1780.03 348.312 1783.83 345.146C1785.09 344.09 1786.36 343.035 1791.85 344.09C1834.48 352.322 1822.87 355.91 1820.55 359.499Z" fill="#FA5F1A"/>
<path d="M1830.26 217.657C1827.72 217.657 1814.43 217.446 1810.42 223.356C1801.34 237.076 1798.39 275.491 1796.28 299.765C1796.07 302.298 1797.12 299.343 1772.85 310.741C1723.89 333.959 1701.09 342.613 1750.9 360.343C1807.25 380.395 1832.58 389.26 1845.66 392.215C1855.16 394.326 1858.12 393.27 1862.55 392.215C1873.73 389.893 1919.32 344.09 1926.71 333.114C1927.13 332.481 1927.55 329.948 1928.18 329.948C1934.73 329.315 1931.14 328.049 1936.41 293.011C1940.42 266.204 1941.27 246.574 1941.9 242.564C1947.81 209.426 1918.69 215.969 1830.26 217.657ZM1791 303.775C1796.7 301.242 1801.34 302.509 1803.66 302.931C1883.44 310.53 1879.85 312.64 1922.49 316.229C1930.93 316.862 1915.1 329.104 1886.82 362.876C1870.57 382.506 1862.13 388.627 1839.54 384.405C1820.13 380.606 1790.16 368.997 1735.71 350C1715.23 342.613 1719.88 334.381 1791 303.775ZM1925.65 331.637C1919.11 342.824 1873.31 387.994 1861.49 390.949C1858.54 391.582 1855.79 392.215 1852.63 392.004C1843.55 390.949 1741.4 359.499 1727.05 347.679C1726.84 347.467 1726.84 347.256 1727.05 347.045C1727.26 346.834 1727.48 346.834 1727.69 346.834C1731.27 348.734 1740.98 353.166 1766.31 362.032C1809.78 377.44 1833 384.827 1847.14 386.727C1863.6 389.049 1867.4 383.772 1876.48 376.173C1880.49 373.007 1919.74 327.627 1925.02 321.294C1925.23 321.083 1925.44 321.083 1925.44 321.083C1925.65 321.083 1925.86 321.294 1925.86 321.505C1926.28 324.672 1925.86 331.215 1925.65 331.637ZM1916.79 314.54C1910.46 313.907 1797.33 301.453 1797.54 300.398C1801.34 256.706 1804.93 236.654 1810.42 227.367C1815.69 218.502 1822.45 219.557 1835.95 219.346C1960.69 215.969 1939.58 216.18 1933.67 262.616C1930.93 284.99 1927.76 301.031 1926.28 307.997C1924.17 316.862 1926.71 315.384 1916.79 314.54ZM1941.9 233.91C1941.69 235.388 1934.94 294.699 1931.77 323.616C1931.56 326.149 1930.93 328.26 1928.61 328.682C1927.13 328.893 1928.39 325.305 1926.5 317.917C1925.65 314.962 1939.58 236.654 1939.79 235.81C1940.64 230.533 1938.95 226.945 1937.68 224.834C1937.47 224.623 1937.68 224.412 1937.89 224.201C1938.1 223.99 1938.31 223.99 1938.52 224.201C1940 226.1 1941.9 229.689 1941.9 233.91Z" fill="#FA5F1A"/>
<path d="M1760.82 329.104C1902.44 363.72 1882.81 361.398 1897.16 344.935C1914.25 325.516 1919.95 323.194 1911.93 321.505C1907.71 320.661 1843.13 309.474 1802.82 306.097C1791.63 305.042 1786.57 308.208 1782.98 310.108C1760.19 322.983 1749.42 326.36 1760.82 329.104ZM1780.87 333.114C1774.33 331.637 1771.59 331.215 1772.64 330.371C1776.86 326.993 1777.49 326.36 1778.13 326.571C1787.84 328.893 1787.41 328.049 1781.08 333.114H1780.87ZM1824.98 329.315C1825.4 328.893 1828.57 325.305 1828.99 325.305C1838.7 327.838 1837.64 326.782 1833.84 331.215C1833.63 331.426 1833.42 331.426 1833.42 331.426H1833.21C1826.25 330.159 1824.35 329.948 1824.98 329.315ZM1820.76 329.104C1815.27 327.204 1811.47 329.526 1818.65 323.194C1818.86 323.194 1818.86 322.983 1819.07 322.983C1826.25 324.461 1827.51 324.672 1827.09 325.305C1824.77 328.471 1823.93 330.159 1820.76 329.104ZM1835.32 331.215C1837.22 328.893 1837.85 327.204 1841.02 328.26C1847.77 330.371 1849.46 328.049 1845.03 333.326C1844.82 333.537 1844.4 333.748 1844.19 333.959C1844.19 333.959 1843.97 333.959 1843.76 333.959C1835.96 332.481 1837.22 332.692 1835.53 332.059C1835.32 332.059 1835.32 331.848 1835.11 331.637C1835.11 331.426 1835.11 331.215 1835.32 331.215ZM1848.62 330.371C1848.83 330.159 1849.04 329.948 1849.25 329.948C1849.46 329.948 1849.46 329.948 1849.67 329.948C1858.12 331.848 1858.96 331.637 1857.9 332.692C1854.53 336.281 1854.53 336.281 1853.89 336.281C1843.55 333.748 1844.4 334.803 1848.62 330.371ZM1859.38 332.27C1859.59 332.059 1859.59 332.059 1859.8 332.059C1869.51 334.17 1869.51 333.115 1864.87 337.758C1864.66 337.969 1864.24 338.18 1863.81 338.18C1853.68 336.281 1854.53 337.336 1859.38 332.27ZM1866.14 337.969C1869.09 335.014 1869.51 334.17 1870.36 334.381C1881.12 336.703 1880.06 335.647 1875.84 340.502C1875.84 340.502 1875.63 340.713 1875.42 340.713H1875.21C1865.71 338.813 1865.08 339.025 1866.14 337.969ZM1870.78 332.903C1874.37 328.471 1874.79 328.049 1875.42 328.049C1886.82 330.371 1886.18 328.893 1880.49 335.014C1880.28 335.225 1880.28 335.225 1880.06 335.225H1879.85C1872.89 333.959 1870.36 333.537 1870.78 332.903ZM1869.51 332.692C1869.3 332.903 1869.3 332.903 1869.09 333.114C1868.88 333.114 1868.88 333.326 1868.67 333.114C1858.54 331.004 1858.96 332.27 1863.81 326.571C1864.02 326.36 1864.45 326.149 1864.87 326.149C1875.63 328.049 1874.58 326.993 1869.51 332.692ZM1859.17 330.793C1858.96 330.793 1858.96 331.004 1858.75 331.004C1857.27 330.793 1849.46 329.315 1850.31 328.26C1854.11 323.405 1852.21 324.038 1862.55 325.938C1863.6 325.938 1860.23 329.948 1859.17 330.793ZM1849.25 328.049C1849.04 328.26 1848.83 328.471 1848.62 328.682C1848.62 328.682 1848.41 328.682 1848.2 328.682C1839.97 326.993 1838.7 326.993 1839.33 326.149C1841.23 323.827 1842.29 322.561 1843.34 322.561C1854.11 324.038 1852.84 323.616 1849.25 328.049ZM1837.85 326.36C1837.85 326.36 1837.64 326.571 1837.43 326.571H1837.22C1828.78 324.249 1828.99 324.672 1831.1 322.772C1831.95 321.928 1832.37 320.661 1834.06 321.294C1841.86 323.194 1842.5 320.872 1837.85 326.36ZM1828.36 324.038C1828.15 324.038 1828.15 324.038 1827.94 324.038C1818.86 321.928 1819.07 322.35 1821.39 320.028C1822.66 318.762 1822.03 318.762 1830.68 320.45C1830.89 320.45 1830.89 320.661 1831.1 320.661C1831.1 320.872 1831.1 320.872 1831.1 321.083C1830.47 322.139 1828.99 323.616 1828.36 324.038ZM1820.55 319.395C1819.49 320.872 1819.7 320.45 1819.07 321.505C1819.07 321.717 1818.86 321.717 1818.65 321.717C1811.26 320.661 1812.53 320.872 1810.63 320.239C1810.42 320.239 1810.42 320.028 1810.21 319.817C1810.21 319.606 1810.21 319.395 1810.21 319.395C1812.32 316.862 1811.9 316.44 1820.13 318.55C1820.34 318.55 1820.34 318.762 1820.55 318.762C1820.55 319.184 1820.55 319.395 1820.55 319.395ZM1816.75 322.561C1816.96 322.561 1816.96 322.772 1816.96 322.983C1816.96 323.194 1816.96 323.194 1816.96 323.405C1814.01 326.993 1813.79 326.993 1813.16 327.416C1812.95 327.416 1812.95 327.416 1812.74 327.416C1806.41 326.149 1804.3 325.938 1805.14 325.094C1808.73 321.294 1808.73 321.083 1809.57 321.083C1813.16 321.928 1815.69 322.139 1816.75 322.561ZM1803.24 325.305C1803.03 325.305 1803.03 325.516 1802.82 325.305C1792.48 322.983 1792.48 324.038 1797.54 319.817C1797.97 319.395 1798.6 318.973 1799.02 319.184C1808.1 320.661 1809.15 320.239 1803.24 325.305ZM1801.55 326.149C1801.77 326.149 1801.77 326.36 1801.77 326.571C1801.77 326.782 1801.77 326.782 1801.55 326.993C1800.71 327.838 1799.02 329.526 1798.18 330.159C1798.18 330.159 1797.97 330.159 1797.76 330.159C1788.89 328.471 1787.84 328.471 1789.1 327.416C1789.95 326.782 1792.27 324.249 1793.32 324.249C1794.17 324.46 1800.08 325.305 1801.55 326.149ZM1800.08 329.948C1800.71 329.315 1803.24 326.571 1804.09 326.782C1805.35 326.993 1809.57 327.627 1811.47 328.26C1811.68 328.26 1811.68 328.471 1811.68 328.682C1811.68 328.893 1811.68 328.893 1811.68 329.104C1811.05 329.948 1809.79 331.215 1808.31 332.692C1808.1 332.903 1808.1 332.903 1807.89 332.903C1800.5 330.793 1799.44 330.793 1800.08 329.948ZM1813.79 328.682C1813.79 328.682 1814.01 328.682 1814.22 328.682C1822.87 330.582 1823.08 330.159 1822.24 331.215C1817.17 336.07 1819.7 335.647 1810.42 333.326C1809.15 332.903 1812.53 329.315 1813.79 328.682ZM1823.29 331.426C1823.71 331.004 1824.35 330.793 1824.77 331.004C1825.61 331.215 1829.83 331.848 1831.73 332.481C1831.95 332.481 1831.95 332.692 1832.16 332.903C1832.16 333.115 1832.16 333.326 1832.16 333.326C1831.31 334.381 1829.41 336.281 1827.72 337.336C1827.51 337.336 1827.51 337.547 1827.3 337.336C1818.44 335.225 1817.8 335.858 1823.29 331.426ZM1833.42 332.692C1833.42 332.481 1833.63 332.481 1833.84 332.481C1834.06 332.481 1834.06 332.481 1834.27 332.692C1841.65 334.17 1843.34 334.381 1842.71 335.014C1837.85 340.291 1840.39 339.658 1830.05 337.336C1828.78 337.547 1831.31 335.858 1833.42 332.692ZM1844.19 335.225C1844.4 335.014 1844.61 335.014 1844.82 335.014C1853.68 337.125 1855.58 336.07 1849.25 341.557C1849.04 341.557 1849.04 341.768 1848.83 341.557C1838.28 339.447 1838.91 341.135 1844.19 335.225ZM1854.32 337.547C1854.32 337.336 1854.53 337.336 1854.74 337.336C1854.74 337.336 1854.95 337.336 1855.16 337.336C1863.39 339.236 1864.24 339.025 1863.18 340.08C1862.76 340.502 1859.38 344.09 1858.75 343.879C1849.04 341.98 1850.31 342.402 1854.32 337.547ZM1861.28 343.246C1863.18 341.768 1863.81 338.813 1866.98 340.08C1874.16 342.824 1877.11 339.236 1870.57 346.201C1870.36 346.412 1870.15 346.412 1870.15 346.623C1869.93 346.623 1869.93 346.623 1869.72 346.623C1860.65 344.301 1859.8 344.301 1861.28 343.246ZM1871.83 346.201C1872.68 345.146 1874.58 342.824 1875.63 341.98C1875.84 341.98 1875.84 341.769 1876.05 341.98C1881.75 343.246 1884.07 343.668 1883.65 344.301C1880.28 348.101 1879.64 348.945 1879.01 348.734C1873.94 347.467 1871.41 347.045 1871.83 346.201ZM1876.9 340.502C1881.12 335.647 1879.43 336.07 1888.3 337.969C1889.35 338.18 1886.4 341.557 1885.13 342.613C1884.92 342.824 1884.92 342.824 1884.71 342.824C1878.38 341.346 1876.27 341.135 1876.9 340.502ZM1882.17 335.647C1881.96 335.647 1881.96 335.436 1881.96 335.225C1881.96 335.014 1881.96 335.014 1881.96 334.803C1884.71 331.426 1885.76 330.159 1886.61 330.159C1894.84 331.848 1895.89 331.215 1889.98 336.914C1889.77 336.914 1889.77 337.125 1889.56 337.125C1885.34 336.281 1883.02 336.07 1882.17 335.647ZM1887.66 329.315C1887.45 329.315 1887.45 329.104 1887.45 328.893C1887.45 328.682 1887.45 328.682 1887.45 328.471C1890.19 324.883 1890.19 325.094 1890.62 324.883H1890.83C1900.33 326.149 1900.11 325.727 1895.47 330.582C1894.63 331.426 1889.14 330.159 1887.66 329.315ZM1886.18 328.682C1886.18 328.893 1885.76 328.893 1885.76 329.104C1885.76 329.104 1885.55 329.104 1885.34 329.104C1879.01 327.838 1875.63 327.416 1876.27 326.782C1879.01 323.616 1879.64 322.561 1882.17 323.194C1889.98 325.094 1890.62 322.983 1886.18 328.682ZM1875.21 326.36C1874.37 327.204 1873.94 326.993 1865.92 325.516C1865.29 325.305 1865.08 325.094 1865.5 324.672C1867.82 321.928 1868.25 321.294 1869.51 321.294C1869.93 321.294 1877.11 322.35 1877.11 322.35C1879.01 322.561 1878.38 323.405 1875.21 326.36ZM1867.19 321.505C1865.5 323.194 1864.45 324.883 1862.97 324.883C1852.63 323.616 1853.89 323.827 1858.12 319.606C1858.33 319.395 1858.54 319.395 1858.75 319.184H1858.96C1867.82 320.661 1868.25 320.239 1867.19 321.505ZM1856.64 319.395C1855.79 320.45 1854.32 322.139 1853.05 322.983C1853.05 322.983 1852.84 322.983 1852.63 322.983C1845.45 321.928 1842.92 321.717 1843.55 321.083C1846.51 317.917 1847.14 317.284 1848.2 317.284C1848.83 317.284 1854.11 318.128 1856.22 318.762C1856.43 318.762 1856.43 318.973 1856.64 318.973C1856.64 319.184 1856.64 319.395 1856.64 319.395ZM1845.45 317.706C1844.61 318.973 1842.29 321.928 1840.39 321.505C1833 319.606 1831.73 321.505 1836.8 316.44C1837.01 316.229 1837.43 316.018 1837.43 316.018H1837.64C1842.92 316.651 1844.4 316.862 1845.03 317.073C1845.24 317.073 1845.24 317.284 1845.45 317.284C1845.66 317.284 1845.66 317.495 1845.45 317.706ZM1832.58 319.606H1832.37H1832.16C1825.61 318.55 1822.87 318.339 1823.71 317.495C1825.82 315.384 1827.09 314.118 1827.72 314.118C1837.64 315.806 1836.8 314.962 1832.58 319.606ZM1825.19 314.54C1824.56 315.173 1822.45 317.917 1821.6 317.917C1811.47 316.651 1812.95 316.44 1816.96 312.851C1817.17 312.851 1817.17 312.64 1817.38 312.64C1823.29 313.696 1825.82 313.907 1825.19 314.54ZM1812.53 315.806C1812.53 316.018 1812.32 316.018 1812.11 316.018H1811.9C1806.62 315.173 1803.24 314.751 1803.88 314.118C1806.83 311.374 1806.83 311.163 1807.67 311.374C1816.75 312.64 1816.12 312.007 1812.53 315.806ZM1809.36 316.651C1810.84 316.862 1812.11 316.862 1808.94 319.817C1808.73 319.817 1808.73 320.028 1808.52 320.028H1808.31C1801.13 318.762 1801.77 318.762 1800.71 318.55C1800.5 318.55 1800.5 318.339 1800.29 318.128C1800.29 317.917 1800.29 317.706 1800.5 317.706C1802.82 314.962 1802.61 315.384 1809.36 316.651ZM1800.71 315.806C1798.18 318.762 1797.76 317.917 1791.42 316.862C1791.21 316.862 1791 316.651 1791 316.44C1791 316.229 1791 316.018 1791.21 316.018C1792.27 314.962 1792.06 315.384 1793.96 314.118C1793.96 314.118 1794.17 314.118 1794.38 314.118C1798.81 314.962 1800.08 315.173 1800.5 315.173C1800.71 315.173 1800.71 315.384 1800.92 315.595C1800.71 315.384 1800.71 315.595 1800.71 315.806ZM1796.49 318.762C1796.7 318.762 1796.7 318.973 1796.91 319.184C1796.91 319.395 1796.91 319.606 1796.91 319.606C1795.86 320.661 1794.17 322.139 1793.11 322.983C1792.9 322.983 1792.9 323.194 1792.69 322.983C1786.99 321.717 1784.67 321.294 1785.3 320.661C1786.15 320.028 1789.1 317.495 1790.16 317.706C1791.42 317.917 1794.8 318.339 1796.49 318.762ZM1787.62 327.838C1787.41 327.838 1787.41 328.049 1787.2 327.838C1780.66 326.149 1778.55 325.938 1779.18 325.305C1780.45 324.249 1783.19 321.717 1784.67 322.139C1792.06 324.249 1793.53 322.561 1787.62 327.838ZM1783.19 332.903C1784.25 331.848 1786.36 329.948 1787.84 329.104C1788.05 329.104 1788.05 328.893 1788.26 329.104C1796.07 330.793 1797.76 331.004 1797.12 331.637C1794.59 334.17 1792.9 335.647 1792.27 335.647C1791.21 335.436 1782.35 333.748 1783.19 332.903ZM1802.4 337.969C1792.06 335.647 1792.69 337.125 1798.39 331.637C1798.39 331.637 1798.6 331.426 1798.81 331.426H1799.02C1805.14 332.903 1807.67 333.115 1807.04 333.959C1803.66 337.547 1803.24 338.18 1802.4 337.969ZM1812.11 340.08C1802.82 337.969 1803.66 339.236 1807.89 334.381C1808.31 333.748 1808.94 333.748 1809.78 333.959C1811.9 334.592 1814.85 335.225 1816.12 335.647C1816.33 335.647 1816.33 335.858 1816.33 336.07C1816.33 336.281 1816.33 336.281 1816.33 336.492C1815.06 338.18 1813.37 339.447 1812.32 340.08C1812.53 340.08 1812.32 340.08 1812.11 340.08ZM1863.81 352.322C1844.82 348.945 1832.79 345.357 1815.06 340.924C1814.43 340.713 1814.22 340.713 1814.64 340.08C1819.49 334.803 1816.75 336.07 1825.19 337.758C1834.48 339.658 1841.86 341.346 1847.77 342.613C1873.52 347.89 1869.93 347.89 1864.24 352.322C1864.02 352.322 1863.81 352.322 1863.81 352.322ZM1873.52 354.222H1873.31C1866.56 352.955 1865.29 352.955 1866.35 351.9C1870.36 347.679 1870.57 347.679 1871.41 347.89C1880.28 349.789 1879.43 348.945 1874.58 353.589C1874.37 353.8 1873.94 354.011 1873.52 354.222ZM1888.72 352.744C1884.92 357.177 1880.49 355.699 1875.63 354.644C1875.63 354.644 1875.42 354.222 1875.42 354.011C1880.49 348.734 1878.16 349.367 1888.3 351.9C1888.72 352.111 1888.93 352.533 1888.72 352.744ZM1890.41 351.056C1890.19 351.056 1890.19 351.267 1889.98 351.267C1882.81 349.578 1880.49 349.367 1881.12 348.523C1884.92 344.512 1885.34 343.879 1885.97 344.09C1894.2 345.99 1896.95 345.357 1890.41 351.056ZM1899.06 341.135C1895.89 344.301 1895.68 344.935 1895.05 344.724C1889.77 343.668 1886.18 343.457 1886.82 342.613C1890.62 337.969 1890.19 338.602 1891.04 338.18H1891.25C1896.95 339.658 1899.9 340.291 1899.06 341.135ZM1900.54 339.025C1900.54 339.025 1900.33 339.025 1900.11 339.025C1892.73 337.547 1891.25 337.336 1891.88 336.703C1895.89 331.215 1894.63 331.848 1903.7 334.803C1904.55 335.225 1901.59 338.391 1900.54 339.025ZM1904.55 333.959C1904.34 333.959 1904.34 334.17 1904.12 333.959C1899.9 332.692 1897.58 332.059 1896.74 331.637C1896.53 331.637 1896.53 331.426 1896.53 331.215C1896.53 331.004 1896.53 331.004 1896.74 330.793C1900.33 326.782 1900.54 326.571 1901.38 326.782C1910.24 328.049 1914.25 327.204 1904.55 333.959ZM1906.87 321.928C1907.71 321.928 1912.78 322.561 1914.04 323.616C1914.25 323.827 1914.25 324.038 1914.04 324.249C1911.3 327.838 1911.93 326.993 1909.82 326.571C1902.22 325.516 1901.38 325.727 1902.22 324.672C1904.76 322.561 1904.97 321.928 1906.87 321.928ZM1895.89 320.239C1904.76 321.505 1905.18 320.45 1901.17 324.672C1900.96 324.883 1900.54 325.094 1900.11 325.305H1899.9C1891.04 323.616 1891.04 324.038 1892.73 322.35C1893.57 321.505 1894.2 320.028 1895.89 320.239ZM1890.41 323.405C1890.19 323.616 1890.19 323.616 1889.98 323.616C1883.44 322.561 1880.7 322.139 1881.33 321.505C1883.44 319.395 1884.29 318.55 1885.13 318.762C1894.63 319.606 1893.78 319.606 1890.41 323.405ZM1873.94 316.651C1874.79 316.651 1883.02 317.706 1882.17 318.762C1881.54 319.606 1880.49 321.083 1879.64 321.505C1879.64 321.505 1879.43 321.505 1879.22 321.505C1871.2 320.028 1871.83 320.239 1870.78 320.028C1870.57 320.028 1870.57 319.817 1870.36 319.606C1870.36 319.395 1870.36 319.184 1870.36 319.184C1871.41 318.128 1872.89 316.651 1873.94 316.651ZM1870.78 316.229C1871.83 316.44 1869.51 318.762 1868.46 319.606C1868.25 319.606 1868.25 319.817 1868.03 319.817C1860.65 318.339 1861.28 318.55 1860.23 318.339C1860.01 318.339 1860.01 318.128 1859.8 318.128C1859.8 317.917 1859.8 317.706 1859.8 317.706C1862.55 314.329 1862.34 314.751 1870.78 316.229ZM1860.01 314.329C1860.23 314.329 1860.44 314.54 1860.44 314.54C1860.44 314.751 1860.44 314.962 1860.44 314.962C1859.59 316.018 1858.75 316.862 1858.12 317.495C1857.9 317.495 1857.9 317.706 1857.69 317.706C1849.67 316.651 1850.73 316.651 1849.25 316.229C1849.04 316.229 1849.04 316.018 1848.83 315.806C1848.83 315.595 1848.83 315.384 1848.83 315.384C1851.78 312.429 1850.52 313.063 1860.01 314.329ZM1843.13 312.007C1849.67 313.696 1851.36 311.163 1847.56 316.018C1847.35 316.229 1847.35 316.229 1847.14 316.229C1838.07 314.962 1838.07 315.173 1838.91 314.329C1839.54 313.485 1840.81 311.374 1843.13 312.007ZM1830.89 310.53C1831.1 310.319 1831.1 310.319 1831.31 310.319C1835.53 310.952 1837.85 311.163 1838.49 311.585C1838.7 311.585 1838.7 311.796 1838.7 311.796C1838.7 312.007 1838.7 312.007 1838.7 312.218C1838.07 313.063 1837.01 314.54 1836.38 314.54C1831.1 313.907 1829.41 313.696 1828.78 313.485C1828.57 313.485 1828.57 313.274 1828.36 313.063C1828.36 312.851 1828.36 312.64 1828.57 312.64C1829.41 312.007 1830.26 311.163 1830.89 310.53ZM1818.44 311.163C1820.55 309.052 1818.65 309.052 1828.15 310.319C1828.36 310.319 1828.57 310.53 1828.57 310.53C1828.57 310.741 1828.57 310.952 1828.57 310.952C1828.15 311.374 1827.51 312.007 1826.88 313.063C1826.67 313.274 1826.67 313.274 1826.46 313.274C1821.39 312.429 1819.49 312.218 1818.86 312.007C1818.65 312.007 1818.65 311.796 1818.44 311.585C1818.44 311.374 1818.44 311.163 1818.44 311.163ZM1809.15 309.685C1811.47 307.786 1809.36 307.575 1817.8 308.63C1818.02 308.63 1818.02 308.841 1818.02 308.841C1818.02 309.052 1818.02 309.052 1818.02 309.263C1817.38 310.108 1816.75 311.163 1816.12 311.163C1815.06 311.163 1810.84 310.952 1809.36 310.319C1809.15 310.319 1809.15 310.107 1808.94 309.896C1808.94 310.107 1808.94 309.896 1809.15 309.685ZM1800.5 308.419C1800.92 307.997 1801.55 307.364 1802.4 307.364C1803.03 307.152 1807.25 307.786 1808.31 307.786C1808.52 307.786 1808.73 307.997 1808.73 308.208C1808.73 308.419 1808.73 308.63 1808.52 308.63C1807.04 310.108 1802.4 309.263 1800.71 309.263C1800.5 309.263 1800.29 309.052 1800.29 309.052C1800.29 308.63 1800.29 308.63 1800.5 308.419ZM1804.93 310.952C1805.14 310.952 1805.14 311.163 1805.14 311.374C1805.14 311.585 1805.14 311.796 1805.14 311.796C1802.19 315.384 1802.19 314.54 1795.43 313.274C1794.59 313.063 1797.76 310.319 1799.44 310.53C1799.44 310.319 1804.93 310.952 1804.93 310.952ZM1792.48 307.364C1794.38 306.73 1797.54 306.73 1798.81 306.941C1799.02 306.941 1799.23 307.152 1799.23 307.364C1799.23 307.575 1799.23 307.786 1799.02 307.786C1798.6 308.208 1798.18 308.419 1797.97 308.841C1797.97 308.841 1797.76 309.052 1797.54 309.052C1794.8 308.63 1793.32 308.419 1792.48 308.419C1792.27 308.419 1792.06 308.208 1792.06 307.997C1792.06 307.786 1792.27 307.575 1792.48 307.364ZM1785.3 310.53C1788.05 308.419 1791.85 309.052 1795.64 309.685C1795.86 309.685 1796.07 309.896 1796.07 310.108C1796.07 310.319 1796.07 310.53 1795.86 310.53C1795.01 311.374 1793.75 312.429 1793.11 312.429C1792.06 312.429 1787.41 311.796 1785.51 311.374C1785.3 311.374 1785.09 311.163 1785.09 310.952C1785.09 310.952 1785.09 310.741 1785.3 310.53ZM1779.6 313.907C1780.87 313.063 1779.18 313.907 1782.56 312.429H1782.77C1788.47 313.063 1790.37 313.274 1791.21 313.485C1791.42 313.485 1791.63 313.696 1791.63 313.907C1791.63 314.118 1791.63 314.329 1791.42 314.329C1790.79 314.962 1789.74 315.806 1789.1 316.229C1788.47 316.651 1782.35 315.595 1779.6 314.962C1779.39 314.962 1779.18 314.751 1779.18 314.54C1779.18 314.329 1779.39 314.118 1779.6 313.907ZM1772.01 317.706C1773.27 317.073 1775.59 315.806 1776.23 315.384H1776.44C1783.83 316.651 1787.84 317.073 1786.99 317.706C1785.09 319.184 1783.61 321.505 1780.66 320.45C1778.97 319.817 1774.33 319.184 1772.01 318.55C1771.8 318.55 1771.59 318.339 1771.59 318.128C1771.8 317.917 1771.8 317.706 1772.01 317.706ZM1764.83 321.928C1769.05 318.128 1770.74 319.395 1781.5 321.505C1782.56 321.717 1779.18 324.249 1777.28 325.305C1777.07 325.305 1777.07 325.305 1776.86 325.305C1767.58 323.194 1765.46 322.983 1764.83 322.772C1764.62 322.772 1764.62 322.561 1764.41 322.35C1764.62 322.139 1764.62 321.928 1764.83 321.928ZM1758.29 326.149C1759.56 324.883 1761.67 322.983 1763.35 323.405C1773.48 325.516 1776.23 325.938 1775.6 326.571C1770.74 330.371 1770.74 330.793 1769.9 330.371C1758.08 326.993 1757.44 326.993 1758.29 326.149Z" fill="#FA5F1A"/>
<path d="M1864.24 257.128C1866.98 259.028 1868.67 257.761 1869.93 256.495C1871.83 254.595 1870.57 252.484 1868.67 251.64C1867.19 251.007 1864.87 250.585 1863.39 252.907C1862.97 253.54 1862.76 255.228 1861.91 255.651C1859.59 256.706 1858.75 254.595 1859.17 253.54C1862.76 245.308 1873.52 248.474 1873.31 254.384C1873.1 259.872 1867.19 260.083 1863.81 260.083C1862.97 260.083 1859.8 259.872 1862.97 260.927C1868.67 262.616 1874.79 259.239 1874.79 254.806C1874.79 253.329 1874.37 251.64 1872.47 249.952C1864.02 242.564 1854.53 252.484 1858.33 256.284C1861.07 259.239 1862.55 256.073 1864.24 257.128ZM1869.09 255.228C1868.03 257.128 1864.87 257.761 1864.45 255.651C1863.81 250.796 1870.14 253.118 1869.09 255.228Z" fill="#FA5F1A"/>
<path d="M1922.91 229.689C1918.26 228.844 1911.09 228.422 1895.68 226.945C1887.45 226.1 1830.26 224.201 1823.71 226.311C1809.78 230.533 1808.94 253.54 1806.62 278.235C1805.56 290.056 1804.3 293.855 1814.64 296.599C1824.56 299.132 1832.37 299.132 1861.07 302.509C1880.7 304.831 1893.99 306.519 1902.22 306.73C1908.98 306.941 1912.78 306.097 1914.89 303.353C1915.94 301.876 1916.58 299.976 1917 297.443C1926.07 240.031 1932.62 231.588 1922.91 229.689ZM1923.54 251.218C1916.58 282.879 1918.48 297.021 1913.2 302.509C1908.56 307.152 1898.85 305.253 1874.15 302.509C1827.09 297.021 1814.43 296.388 1811.26 293.011C1805.99 287.734 1813.58 245.73 1815.69 239.398C1819.7 226.311 1827.72 227.367 1845.45 228C1914.47 230.322 1926.71 231.166 1926.5 237.076C1926.07 240.242 1924.81 245.097 1923.54 251.218Z" fill="#FA5F1A"/>
<path d="M1873.52 243.408C1871.2 243.197 1843.97 239.82 1843.76 243.408C1843.76 247.419 1842.08 251.218 1841.02 255.228C1839.54 261.139 1838.49 267.049 1837.85 273.17C1837.64 276.336 1835.74 277.813 1839.54 279.08C1843.97 280.557 1856.22 281.402 1886.82 283.512C1894.63 284.145 1892.09 287.734 1894.63 259.239C1896.53 241.72 1900.54 245.73 1873.52 243.408ZM1846.09 243.619C1852.63 241.931 1887.87 245.097 1893.78 246.574C1893.99 246.574 1893.99 246.786 1893.99 246.786C1893.99 246.997 1893.99 246.997 1893.78 246.997C1869.93 261.35 1866.35 272.959 1849.04 249.318C1848.83 248.896 1845.24 243.83 1846.09 243.619ZM1839.33 275.914C1838.7 276.336 1838.49 276.758 1838.7 275.069C1841.65 260.294 1843.55 249.529 1844.4 245.941C1844.4 245.73 1844.61 245.73 1844.82 245.519C1845.03 245.519 1845.24 245.519 1845.24 245.73C1846.51 247.208 1848.2 250.163 1850.73 253.118C1853.05 256.073 1857.69 260.294 1857.06 260.716C1841.23 272.114 1844.61 271.27 1839.33 275.914ZM1890.41 282.246C1884.5 282.246 1838.91 279.08 1840.81 277.18C1849.67 267.049 1854.95 264.305 1857.27 262.616C1858.75 261.35 1860.23 262.616 1861.49 263.249C1863.6 264.305 1866.35 265.782 1870.99 263.671C1872.47 263.038 1877.32 268.737 1882.6 273.803C1889.35 280.346 1890.41 281.19 1890.62 281.613C1891.25 282.246 1890.83 282.246 1890.41 282.246ZM1891.88 280.135C1891.88 280.346 1891.67 280.557 1891.67 280.557C1891.46 280.557 1891.25 280.557 1891.25 280.557C1886.61 277.18 1874.79 264.305 1873.94 263.671C1872.89 262.405 1872.68 262.616 1874.15 261.772C1885.97 255.017 1894.84 245.519 1894.84 250.585C1894.84 252.485 1892.52 275.491 1891.88 280.135Z" fill="#FA5F1A"/>
<path fill-rule="evenodd" clip-rule="evenodd" d="M1139.19 234.584C1139.37 234.774 1147.68 240.64 1151.41 243.613C1157.23 248.216 1159.04 250.122 1161.02 252.22C1162.28 253.554 1162.2 255.802 1161.76 257.481C1161.22 259.251 1161.21 259.626 1159.42 259.875C1149.62 261.197 1138.81 266.905 1132.58 275.319C1131.89 276.337 1131.42 276.235 1130.51 275.469C1126.51 272.211 1124.97 270.965 1125.19 270.032C1125.73 268.074 1125.63 265.823 1127.01 263.974C1129.68 260.368 1098.92 265.434 1076.37 284.048C1075.89 284.508 1064.61 292.644 1064.06 292.259C1061.68 290.717 1062.27 280.045 1055.18 276.638C1053.07 275.569 1055.69 273.273 1055.34 270.175C1055.21 268.486 1056 267.563 1057.15 266.834C1081.94 250.978 1100.1 244.278 1129.48 245.934C1130.04 245.944 1130.15 245.477 1129.87 245.379C1129.04 245.082 1129.2 243.305 1129.26 241.62C1129.31 240.496 1129.42 239.842 1130.02 239.103C1136.18 232.187 1135.52 232.456 1139.19 234.584ZM1127.03 271.002C1127.48 271.479 1129.2 273.103 1130.11 273.869C1131.01 274.635 1130.93 271.822 1130.69 270.787C1130.62 270.317 1129.23 269.636 1127.42 267.917C1126.88 267.345 1126.31 270.239 1127.03 271.002ZM1132.03 270.062C1132.23 272.221 1131.85 274.744 1132.44 274.192C1133.22 273.269 1136.06 270.041 1141.38 265.92C1147.26 261.435 1153.41 260.141 1159.19 258.465C1160.14 258.107 1161.47 255.226 1159.3 255.656C1140.6 259.253 1131.97 269.217 1132.03 270.062ZM1099.34 269.19C1103.63 267.3 1108.02 265.317 1112.48 263.992C1121.77 261.349 1128.37 262.687 1130.83 259.639C1132.01 258.161 1129.76 258.308 1121.75 259.194C1099.91 261.61 1066.51 284.526 1066.33 286.865C1065.59 294.067 1071.77 281.716 1099.34 269.19ZM1057.05 271.799C1055.97 273.185 1056.26 275.439 1057.72 276.402C1061.94 278.915 1062.75 284.833 1064.09 286.637C1066.94 290.624 1059.61 268.659 1057.05 271.799ZM1131.33 243.999C1131.4 244.657 1133.94 246.764 1134.34 246.209C1134.64 245.746 1131.03 241.933 1131.33 243.999ZM1131.88 239.324C1131.19 240.155 1131.26 240.812 1132 241.2C1133.09 241.97 1138.81 247.039 1137.28 247.761C1135.47 248.572 1136.51 248.31 1129.88 247.534C1090.86 243.081 1055.8 267.747 1058.35 269.667C1063.01 273.031 1064.21 278.394 1065.9 283.297C1066.75 285.561 1068.59 281.659 1081.71 274.306C1120.98 252.339 1137.14 256.567 1133.67 258.941C1131.55 260.402 1126.59 265.091 1128.67 267.096C1130.57 269.098 1130.55 269.66 1132.89 267.266C1140.2 259.808 1149.79 256.702 1158.97 254.338C1159.92 254.168 1160.03 253.701 1159.3 253.126C1156.94 251.022 1155.51 249.309 1153.59 247.869C1142.85 239.241 1140.19 237.788 1137.18 235.578C1135.54 234.424 1135.21 235.636 1131.88 239.324Z" fill="#FA5F1A"/>
<path fill-rule="evenodd" clip-rule="evenodd" d="M1394.32 557.918C1409.68 551.232 1429.73 526.837 1423.41 510.936C1420.88 504.43 1406.06 540.751 1419.98 487.625C1420.16 486.722 1420.52 486.18 1420.88 485.999C1421.78 485.638 1423.23 487.625 1426.48 490.516C1426.3 490.336 1443.64 505.695 1443.83 505.876C1445.09 506.96 1442.92 507.864 1436.24 506.599C1435.88 506.599 1433.53 506.237 1433.35 506.599C1432.8 507.322 1435.15 511.839 1435.69 514.73C1438.04 526.295 1436.78 536.234 1434.07 545.088C1429.01 562.255 1416.9 574.723 1402.27 581.59C1398.84 583.216 1395.4 584.662 1391.97 586.107C1391.07 586.469 1390.52 583.939 1390.16 581.951C1390.16 581.771 1385.65 561.532 1385.65 561.532L1394.32 557.918ZM1432.26 508.225C1431.18 505.334 1428.47 503.888 1438.4 505.695C1439.13 505.876 1442.2 506.78 1441.12 505.515C1437.86 501.72 1425.22 491.601 1422.14 488.348C1420.7 486.722 1420.34 488.709 1415.46 514.008C1415.28 514.73 1415.82 514.911 1416.36 514.369C1422.69 507.683 1422.51 507.141 1423.41 508.767C1428.11 516.537 1425.94 536.595 1402.63 554.123C1398.66 557.015 1393.05 559.544 1387.63 561.894C1386.37 562.436 1386.55 561.532 1391.43 582.132C1392.15 585.204 1392.33 585.023 1394.86 583.939C1429.55 570.748 1442.74 534.065 1432.26 508.225Z" fill="#FA5F1A"/>
<path fill-rule="evenodd" clip-rule="evenodd" d="M856.014 483.804C845.244 484.61 859.404 481.184 857.011 477.154C855.216 474.131 849.632 481.386 849.033 480.983C848.634 480.781 850.23 470.705 850.03 470.302C849.831 469.899 849.432 469.899 849.233 470.302C847.238 474.534 843.249 472.317 843.249 475.139C843.249 476.348 842.651 477.557 842.252 476.751C841.454 474.937 841.055 476.751 838.662 478.565C829.488 485.416 832.28 480.177 832.28 486.424C832.28 487.028 831.283 486.424 831.283 486.021C830.884 484.812 830.684 485.013 824.501 490.253C823.504 491.059 824.102 491.865 824.501 500.329C824.501 501.941 821.909 502.747 819.914 504.561C805.953 517.861 810.74 516.249 805.155 508.792C795.981 497.104 780.224 485.215 765.864 482.595C754.097 480.378 741.532 481.99 739.936 482.393C733.355 484.409 725.177 487.633 713.21 493.477C702.64 498.717 698.651 498.918 689.277 517.256C678.706 537.61 682.895 560.784 691.471 580.735C703.438 608.545 723.781 628.495 753.897 631.921C759.283 632.525 766.064 629.503 769.255 628.495C771.249 627.89 773.044 626.883 775.039 626.278C777.432 625.472 779.825 625.069 782.219 624.263C783.017 624.062 794.584 619.427 796.579 617.21C796.778 617.008 801.366 613.583 808.945 604.716C814.729 598.066 817.321 586.377 818.717 582.549C822.307 572.271 820.712 556.15 818.717 545.469C812.335 512.823 805.155 522.093 817.92 511.815C827.094 504.359 827.493 503.956 829.488 503.956C831.881 503.956 834.474 503.553 836.867 503.351C840.856 503.351 840.856 502.344 842.85 500.53C848.834 495.492 846.042 497.507 844.645 495.492C844.047 494.686 847.039 495.089 847.837 495.291C849.233 495.694 848.634 495.089 855.216 489.044C855.416 488.842 860.801 484.006 861 483.804C861 482.796 858.607 483.603 856.014 483.804ZM848.036 472.922C848.834 472.519 848.435 473.124 847.837 481.386C847.637 482.595 847.039 483.401 843.848 486.021C843.249 486.424 843.449 486.021 843.449 485.416C843.449 473.93 844.047 474.937 848.036 472.922ZM840.457 478.363C840.856 478.162 841.255 477.758 841.255 477.96C842.252 478.766 842.651 486.222 842.651 487.028C838.064 491.663 839.061 489.85 839.26 483.2C839.26 480.781 838.463 479.572 840.457 478.363ZM833.476 484.006C833.476 482.595 836.468 481.184 837.266 480.781C839.061 479.774 838.463 490.454 837.864 491.26C832.679 496.097 833.476 496.701 833.476 484.006ZM829.488 487.633C831.881 485.618 831.881 489.044 832.679 493.88C832.878 494.686 833.277 495.291 832.878 495.492C822.108 503.754 827.094 501.336 824.9 492.066C824.501 490.857 825.499 490.857 829.488 487.633ZM803.958 509.599C804.557 510.405 808.346 515.644 807.548 516.249C799.172 521.69 799.97 520.884 798.972 522.093C797.177 524.108 796.978 521.488 791.393 513.629C785.41 505.367 778.429 498.918 768.856 497.104C733.953 490.253 742.13 506.173 736.945 485.819C736.346 483.804 775.238 472.519 803.958 509.599ZM763.271 566.024C762.274 566.225 762.474 565.218 760.679 559.777C760.28 558.366 762.075 558.568 762.075 559.172C763.87 565.016 764.269 565.822 763.271 566.024ZM763.87 558.971C765.066 559.374 766.263 559.575 766.861 560.986C767.061 561.389 767.26 561.994 767.061 562.195C764.867 565.621 765.066 566.225 763.271 559.575C763.072 559.172 763.271 558.769 763.87 558.971ZM760.28 557.359C760.28 557.157 760.878 557.157 760.878 557.359C760.878 557.56 760.08 557.56 760.28 557.359ZM758.485 550.507C758.684 550.305 759.083 550.305 759.283 550.507C761.277 553.933 759.482 554.739 759.083 553.731C758.285 551.112 758.285 551.313 758.485 550.507ZM758.884 557.157C758.086 558.165 753.299 554.94 756.889 551.515C757.687 550.708 759.083 556.754 758.884 557.157ZM760.878 550.708C761.078 550.507 761.078 550.507 761.078 550.507C761.676 550.91 762.673 551.515 762.075 551.918C761.277 553.127 760.479 551.112 760.878 550.708ZM759.283 546.477C759.283 546.275 759.083 546.074 758.684 546.074C757.288 546.074 759.681 549.701 758.086 549.096C757.288 548.693 757.687 548.089 757.288 547.283C757.089 547.081 756.889 546.678 756.49 546.88C755.094 547.283 757.886 549.499 755.892 551.112C752.701 554.134 754.895 558.366 757.687 558.769C758.884 558.971 759.681 559.374 759.881 560.784C760.679 564.412 762.274 567.233 760.479 566.427C759.482 565.822 758.086 565.822 757.487 564.412C757.487 564.21 757.288 564.21 757.089 564.21C755.493 563.807 757.288 567.435 761.476 568.039C761.676 568.039 762.274 569.45 762.673 569.853C762.873 570.054 763.271 569.853 763.471 569.651C763.67 568.644 763.271 569.047 763.072 568.241C762.873 567.435 763.87 567.435 764.069 567.838C764.269 568.039 764.468 568.644 764.668 568.845C764.867 569.248 765.465 569.047 765.465 568.644C765.665 567.636 764.069 567.636 765.665 565.621C768.457 562.397 768.058 558.769 763.87 557.762C761.875 557.157 761.875 557.56 768.258 552.119C770.053 550.507 770.053 556.15 770.651 559.172C772.845 572.473 762.474 575.294 758.684 571.263C747.116 558.971 749.709 543.051 757.487 543.454C759.283 543.655 761.676 541.64 766.662 546.275C767.859 547.484 766.064 548.492 764.668 550.104C763.87 550.91 763.072 551.515 762.274 550.104C762.075 549.096 760.28 550.91 759.283 546.477ZM724.978 505.77C729.964 501.739 739.138 498.515 739.537 499.523C739.936 500.329 744.324 512.42 743.127 512.823C730.363 516.45 715.803 534.385 718.795 554.739C721.188 570.86 726.773 565.218 710.019 570.86C709.022 571.263 708.623 570.659 708.424 570.054C707.825 568.442 704.634 559.172 705.233 558.366C703.438 541.64 701.244 525.116 724.978 505.77ZM761.476 574.689C766.263 573.48 764.668 572.271 768.258 583.355C768.656 584.564 770.651 586.579 768.457 587.183C768.258 587.183 761.676 588.594 761.476 588.594C754.296 586.78 746.119 583.758 742.13 577.309C738.54 571.667 735.947 564.412 736.945 564.009C746.717 560.784 747.515 560.381 747.914 561.591C749.709 567.435 751.704 571.667 758.485 575.495C758.884 575.898 760.28 575.092 761.476 574.689ZM758.485 573.077C758.884 572.473 759.681 573.279 759.681 573.682C759.681 574.085 758.884 574.488 758.684 574.488C758.285 573.682 758.086 573.682 758.485 573.077ZM772.645 554.537C783.416 551.112 781.82 548.693 783.017 559.374C784.413 570.86 781.222 579.526 771.449 585.974C770.252 586.78 770.252 585.773 769.055 582.952C768.856 582.549 768.656 582.146 768.457 581.742C767.061 577.712 765.665 573.279 767.26 572.674C770.053 571.667 771.249 569.047 771.848 566.225C773.443 560.18 770.252 555.343 772.645 554.537ZM771.648 587.385C779.825 583.355 784.612 573.279 784.213 564.815C783.415 547.887 779.825 552.321 791.992 547.484C793.188 547.081 793.188 547.283 793.587 551.112C797.776 588.191 775.637 602.096 774.241 598.066C770.85 587.99 770.651 587.788 771.648 587.385ZM773.643 597.864C774.839 601.088 732.756 607.94 723.382 568.442C723.382 568.039 732.557 565.016 732.956 564.815C734.551 564.21 734.751 564.412 735.548 566.024C740.535 578.921 744.723 585.773 758.684 589.4C762.075 590.206 763.271 589.4 769.654 588.393C770.053 588.191 770.053 588.191 773.643 597.864ZM750.108 550.91L750.507 551.112C750.507 553.731 751.105 553.127 747.914 554.537C747.914 554.537 747.715 554.134 747.715 553.933C747.715 551.716 748.114 551.313 750.108 550.91ZM750.906 547.887C750.706 549.701 748.712 550.507 748.114 550.104C747.515 549.298 751.105 546.477 750.906 547.887ZM749.909 555.142C750.507 554.94 750.906 556.351 751.105 557.359C751.105 557.762 748.911 558.366 748.512 558.366C748.313 558.366 747.914 558.165 747.914 557.762C746.717 555.746 748.114 555.746 749.909 555.142ZM756.69 572.674C756.291 572.674 754.695 571.465 754.496 571.263C754.296 571.062 755.692 570.256 756.091 570.054C756.49 569.853 757.886 571.667 758.285 572.07C758.485 572.271 757.288 572.473 756.69 572.674ZM753.299 570.054C752.701 569.853 751.704 568.442 751.704 568.039C751.704 567.636 753.1 566.83 753.897 566.83C754.296 566.83 755.493 568.241 755.493 568.442C755.493 568.845 753.897 570.054 753.299 570.054ZM753.1 565.218C752.701 565.822 751.903 566.225 751.105 566.629C750.307 567.032 749.51 564.815 749.709 564.412C750.108 563.807 751.305 563.203 752.102 563.203C752.501 563.203 753.299 564.815 753.1 565.218ZM749.709 562.598C748.911 563.001 748.114 560.583 748.313 560.18C748.911 559.374 750.906 558.971 751.305 559.575C752.102 561.188 752.302 560.986 749.709 562.598ZM751.903 545.066C752.302 544.864 752.302 545.469 751.903 545.671C749.709 546.477 749.111 546.678 751.903 545.066ZM751.704 543.655C746.119 546.275 746.917 553.328 746.717 558.971C746.717 559.172 746.518 559.575 746.318 559.575C736.546 563.001 735.947 563.404 735.748 562.397C731.56 538.013 740.136 533.982 749.111 528.743C749.31 528.541 749.909 528.944 750.108 529.146C756.49 543.051 756.091 542.648 754.895 542.446C753.897 542.245 752.701 543.051 751.704 543.655ZM748.911 527.131C738.141 533.982 730.961 537.207 734.352 562.598C734.551 563.606 734.152 563.606 723.981 566.83C722.584 567.233 722.784 567.838 719.992 554.336C715.803 534.788 732.357 516.652 743.526 513.629C744.523 513.427 744.324 512.823 749.111 526.728C749.31 526.728 749.111 527.131 748.911 527.131ZM722.186 568.845C726.972 590.811 746.518 605.723 773.443 600.282C774.44 600.081 774.44 601.491 777.233 609.754C777.831 611.366 777.632 610.963 767.46 613.381C764.069 614.187 754.097 614.792 743.127 611.164C731.56 607.335 730.961 605.723 726.773 601.088C718.596 592.02 710.817 576.1 709.62 572.473C709.421 571.667 721.986 567.636 722.186 568.845ZM775.637 599.678C778.828 598.066 783.415 597.259 787.404 589.602C791.393 581.541 794.784 577.309 795.183 559.172C795.382 544.461 789.997 547.887 803.759 543.252C806.352 542.446 806.551 565.016 805.953 574.085C805.753 576.906 801.166 595.043 790.396 603.708C788.402 605.119 778.828 612.373 778.23 609.955C775.039 600.081 775.039 600.081 775.637 599.678ZM803.56 542.043C795.582 545.066 794.385 545.469 794.385 545.469C793.587 545.872 793.388 544.058 789.598 536.199C788.801 534.385 789.399 534.788 797.776 527.937C799.571 526.526 803.56 540.028 803.958 541.237C804.357 541.439 803.958 541.842 803.56 542.043ZM792.391 546.074C782.418 550.104 782.618 550.507 781.82 548.29C780.424 544.461 779.028 543.051 779.825 542.245C788.202 535.393 788.003 535.192 788.601 536.602C792.59 545.469 793.188 545.872 792.391 546.074ZM780.823 550.708C769.454 555.142 771.848 553.53 770.651 551.515C770.053 550.507 771.249 549.701 777.831 544.058C778.629 543.454 778.429 544.26 778.629 544.461C781.222 550.305 781.62 550.305 780.823 550.708ZM760.679 541.842C757.288 541.439 757.089 542.648 756.091 540.431C755.892 540.028 750.706 528.743 750.706 528.34C751.105 526.325 761.277 524.108 767.859 530.355C775.637 537.811 778.03 539.02 774.64 541.64C769.454 545.872 769.055 546.275 768.457 545.872C763.87 542.446 764.867 542.245 760.679 541.842ZM771.848 532.169C769.454 529.952 767.061 527.332 763.87 526.123C756.69 523.503 753.1 525.72 750.906 526.325C750.507 526.325 749.909 526.123 749.909 525.72C745.521 514.233 745.122 513.226 745.92 513.024C757.487 509.599 767.26 510.405 781.421 525.116C786.607 530.557 786.607 531.766 785.011 532.975C773.443 541.439 780.623 540.431 771.848 532.169ZM745.92 511.614C744.922 512.017 744.523 512.017 744.125 510.808C740.136 498.313 739.537 498.717 740.933 498.112C748.313 495.291 757.886 496.5 765.864 498.112C778.03 500.53 779.825 501.135 793.787 518.667C794.385 519.473 796.778 523.302 796.18 523.906C788.202 530.758 787.404 531.564 787.006 530.557C783.814 523.705 762.274 502.948 745.92 511.614ZM732.357 486.424C735.548 485.215 735.548 485.013 735.947 486.021C740.933 502.948 740.335 494.888 727.371 502.948C689.875 525.922 707.427 571.667 707.427 571.667C695.659 575.294 696.457 575.092 696.258 574.085C690.474 552.724 688.878 549.298 690.673 539.02C692.069 530.758 693.066 525.116 696.856 518.264C698.451 515.443 700.645 507.986 710.219 499.523C716.402 493.679 716.402 492.671 732.357 486.424ZM758.285 630.712C749.709 632.324 738.341 627.689 737.543 627.286C696.457 613.381 662.551 538.214 702.041 500.933C704.235 498.717 712.612 494.888 712.413 495.492C710.817 498.515 695.659 506.777 689.875 536.804C687.681 548.29 689.875 555.948 694.263 571.062C695.859 576.301 697.853 583.758 709.022 600.887C719.194 616.404 733.554 625.271 750.906 628.092C759.083 629.301 762.075 629.1 762.873 629.1C764.867 629.301 760.08 630.309 758.285 630.712ZM772.446 626.077C769.454 627.89 744.723 631.921 723.981 615.598C718.795 611.567 717 610.761 713.011 605.522C711.017 602.7 697.853 580.936 696.856 576.704C696.656 575.495 698.451 575.294 705.033 573.48C708.025 572.674 708.224 571.667 709.022 573.48C713.609 583.959 722.186 600.282 731.958 607.537C733.753 608.948 748.712 617.21 768.058 614.59C780.224 612.776 776.634 607.738 781.222 622.248C781.82 623.659 776.435 623.457 772.446 626.077ZM818.917 555.948C820.313 574.085 819.914 575.898 813.931 593.028C812.136 598.469 809.942 602.499 803.958 608.746C793.188 619.83 793.388 618.217 788.402 620.434C787.604 620.837 782.418 622.852 782.019 622.046C777.233 608.746 777.233 613.784 785.609 608.343C789.399 605.925 792.989 603.305 795.781 599.879C799.77 594.841 801.765 590.005 805.554 579.727C807.349 575.092 806.95 559.777 806.751 556.956C806.152 546.275 806.152 546.88 805.753 544.058C805.355 542.043 805.155 542.446 815.127 539.423C816.922 538.819 818.717 554.134 818.917 555.948ZM806.551 541.036C804.557 541.842 805.753 542.043 801.765 531.363C800.767 528.944 799.371 526.728 799.97 526.123C809.543 518.062 808.945 518.465 809.343 519.876C817.321 543.454 817.521 535.998 806.551 541.036ZM796.579 524.712C802.961 520.078 804.357 520.682 818.319 507.583C827.493 498.918 823.903 503.15 828.69 499.523C839.061 491.663 854.418 476.146 855.814 477.557C857.011 478.766 856.413 478.363 839.659 492.268C705.632 603.708 779.427 536.401 796.579 524.712ZM838.463 502.747C825.499 503.956 827.892 503.351 833.277 499.321C833.676 499.12 841.654 499.321 841.853 499.724C842.252 500.329 838.662 503.15 838.463 502.747ZM848.435 494.283C847.637 494.888 841.454 493.88 841.454 495.291C841.454 495.895 843.848 496.903 844.247 497.709C845.044 498.918 842.053 498.313 840.058 498.112C834.274 497.91 832.679 499.724 843.249 490.454C844.446 489.447 852.623 489.447 852.623 489.85C852.823 490.454 848.834 493.88 848.435 494.283ZM858.008 485.416C854.019 489.447 855.416 488.641 846.44 488.641C846.042 488.641 845.842 488.238 846.241 488.036C851.427 483.603 850.429 485.416 857.41 484.61C857.809 484.61 858.008 484.61 858.208 484.812C858.407 485.013 858.208 485.215 858.008 485.416Z" fill="#FA5F1A"/>
<path fill-rule="evenodd" clip-rule="evenodd" d="M1762 586.997C1753.5 577.353 1736.25 578.011 1738.14 581.606C1744.88 593.927 1759.58 624.834 1762.29 621.777C1766.27 617.548 1769.16 615.504 1769.63 609.642C1770.7 599.833 1767.33 593.128 1762 586.997ZM1759.34 617.736C1749.46 602.541 1755.6 613.362 1744.69 591.824C1738.97 580.4 1738.25 581.343 1741.49 580.686C1756.17 578.014 1770 605.132 1761.59 616.822C1760.66 618.292 1760.06 618.972 1759.34 617.736ZM1761.42 620.166C1760.96 620.131 1760.85 619.305 1761.15 618.966C1762.83 616.102 1765.95 613.531 1764.68 604.448C1763.42 595.365 1759.86 588.736 1752.8 582.653C1751.51 581.646 1756.68 583.045 1760.53 587.155C1776.06 603.334 1765.94 620.517 1761.42 620.166ZM1727.33 581.402C1725.68 581.637 1726.09 582.123 1729.91 588.863C1729.99 589.05 1736.81 601.558 1736.88 601.746C1737.94 604.369 1738.55 605.868 1739.99 608.339C1743.47 614.781 1747.07 620.958 1750.55 627.4C1751.19 628.448 1752.44 627.727 1756.8 625.525C1759.54 624.195 1757.1 625.185 1733.09 581.033C1732.37 579.797 1731.85 580.664 1727.33 581.402ZM1752.01 625.063C1750.47 626.123 1750.85 627.06 1737.56 601.254C1731.12 588.593 1728.21 584.102 1728.65 583.048C1729.7 580.225 1746.82 614.95 1752.5 623.558C1752.73 624.12 1752.5 624.647 1752.01 625.063ZM1754.05 625.765C1753.86 625.842 1753.03 625.959 1753.03 625.959C1752.69 625.66 1754.2 625.051 1754.46 625.162C1754.46 625.162 1754.5 625.801 1754.05 625.765ZM1755.59 623.616C1752.7 626.749 1743.44 604.977 1731.18 584.424C1730.46 583.188 1730.46 582.099 1730.65 582.023C1732.72 581.185 1731.51 580.365 1747.33 608.637C1754.9 621.93 1756.26 623.124 1755.59 623.616ZM1727.57 571.71C1714.06 549.699 1714.8 546.126 1712.81 547.151C1708.03 549.957 1707.28 550.262 1707.89 551.761C1707.66 551.199 1717.02 569.439 1719.63 573.181C1719.78 573.556 1720.57 573.89 1721.02 573.925C1728.03 573.924 1728.78 573.619 1727.57 571.71ZM1720.15 571.225C1717.88 567.782 1714.59 563.443 1709.21 552.317C1708.83 551.38 1708.98 550.666 1709.92 550.285C1710.78 549.717 1713.17 553.985 1715.78 558.817C1718.88 564.321 1722.37 570.762 1722.94 571.623C1723.05 572.449 1722.34 574.481 1720.15 571.225ZM1725.88 572.396C1724.33 573.456 1723.99 570.979 1713.35 552.82C1711.69 549.787 1711.38 549.037 1712.89 548.428C1713.64 548.123 1726.74 571.828 1725.88 572.396ZM1703.45 554.865C1703.07 553.928 1702.62 553.893 1702.28 554.684C1690.58 570.11 1716.63 578.757 1713.26 573.141C1712.77 572.468 1706.64 563.825 1703.45 554.865ZM1706.82 571.824C1698.03 566.877 1700.23 558.789 1701.24 559.685C1701.66 560.171 1702.34 561.857 1702.83 562.531C1703.9 565.154 1710.21 573.721 1706.82 571.824ZM1709.83 572.784C1709.49 572.485 1709.34 572.111 1708.92 571.625C1706.99 568.48 1706.46 567.168 1703.4 562.302C1703.4 562.302 1701.62 558.443 1701.5 557.618C1701.69 556.452 1702.48 555.697 1703.35 557.307C1708.61 567.607 1713.27 575.319 1709.83 572.784ZM1741.24 570.321C1735.4 570.503 1733.33 571.341 1732.8 570.029C1728.4 561.339 1726.89 558.681 1723.86 553.364C1721.55 549.282 1720.31 547.824 1721.74 548.117C1727.2 549.176 1726.68 550.043 1728.11 549.246C1731.79 547.536 1730.06 548.672 1731.89 540.737C1732.18 539.308 1731.35 539.425 1728.79 538.5C1717.74 534.466 1716.67 539.919 1714.05 535.088C1713.9 534.713 1713 533.553 1711.79 531.644C1711.56 531.082 1709.64 531.205 1707.42 531.668C1706.14 531.751 1703.28 533.344 1702.23 533.988C1699.93 535.353 1706.5 540.763 1704.77 541.899C1703.04 543.036 1702.47 538.907 1700.43 538.205C1699.71 538.058 1699 537.912 1698.21 537.578C1697.41 537.245 1696.96 537.209 1696.29 537.701C1691.06 541.561 1689.78 541.643 1690.5 542.879C1695.61 552.805 1693.71 545.941 1690.47 557.941C1686.52 573.062 1699.62 584.334 1714.46 584.215C1718.38 584.156 1727.6 607.468 1739.78 628.924C1741.07 631.02 1731.5 629.006 1729.12 628.005C1728.07 627.56 1726.37 628.246 1724.91 628.404C1724.91 628.404 1724.79 628.668 1724.61 628.744C1721.65 634.957 1721.16 635.373 1722.55 636.117C1728.51 638.939 1730.86 641.48 1745.27 638.697C1747.49 638.234 1747.7 643.604 1748.94 643.973C1753.13 645.114 1753.2 644.212 1757.75 641.934C1759.37 641.061 1758.91 641.026 1756.26 635.557C1755.81 634.432 1756.64 634.315 1757.31 633.823C1757.99 633.331 1758.1 634.157 1758.44 634.455C1759.81 636.739 1759.09 637.682 1762.48 637.401C1765.23 637.16 1765.57 636.37 1768.5 634.964C1771.51 633.745 1764.72 629.951 1767.39 627.345C1792.11 605.124 1769.25 569.229 1741.24 570.321ZM1720.68 546.582C1719.7 546.325 1720.15 545.271 1723.54 546.079C1724.07 546.301 1727.91 547.144 1727.76 547.858C1727.61 548.573 1726.48 547.94 1720.68 546.582ZM1704.94 534.199C1705.8 532.541 1710.66 532.101 1709.64 533.384C1709.15 533.8 1708.7 533.765 1708.03 534.257C1707.54 534.673 1706.07 534.831 1705.43 534.872C1705.24 534.948 1705.01 534.386 1704.94 534.199ZM1704.3 536.418C1705.02 535.475 1706.61 538.321 1707.74 540.043C1707.82 540.23 1707.33 540.646 1707.14 540.722C1706.2 541.103 1705.52 539.416 1704.72 537.993C1704.57 537.619 1703.89 537.021 1704.3 536.418ZM1698.44 539.23C1699.12 539.827 1697.24 540.588 1696.67 540.817C1689.94 544.197 1696.29 537.701 1698.44 539.23ZM1692.5 542.943C1694.68 542.931 1695.06 543.868 1696.19 545.59C1696.35 545.964 1696.76 546.45 1696.84 546.638C1696.88 547.276 1695.15 547.323 1694.81 547.025C1694.2 546.615 1690.31 542.955 1692.5 542.943ZM1691.07 558.351C1694.09 546.878 1696.43 548.33 1696.47 548.969C1696.51 550.696 1689.82 556.893 1692.08 567.322C1693.53 575.24 1688.98 566.175 1691.07 558.351ZM1717.89 584.572C1717.88 583.482 1718.71 583.365 1719.54 584.337C1719.54 584.337 1730.6 604.071 1732.57 607.854C1744.57 630.475 1745.21 629.345 1743.36 629.655C1742.35 629.849 1741.82 629.626 1741.18 628.578C1740.53 627.53 1717.78 585.924 1717.89 584.572ZM1726.26 629.599C1726.38 629.335 1726.83 629.37 1727.09 629.481C1728.37 629.399 1726.01 633.844 1725.45 634.073C1722.89 634.237 1724.92 631.672 1726.26 629.599ZM1734.16 638.833C1733.45 638.686 1731.45 638.622 1728.02 637.176C1727.76 637.065 1725.12 635.953 1724.51 635.543C1724.17 635.244 1724.77 634.565 1725.04 634.676C1726.54 635.156 1731.68 638.095 1734.01 638.458C1734.46 638.493 1734.62 638.868 1734.16 638.833ZM1750.29 642.989C1747.09 641.016 1747.29 633.953 1751.08 642.233C1751.58 642.907 1750.9 643.399 1750.29 642.989ZM1761.87 634.812C1762.6 638.226 1758.7 633.477 1760.1 633.132C1761.11 632.938 1761.34 633.501 1761.72 634.438L1761.87 634.812ZM1771.52 622.402C1765.89 629.044 1764.41 628.113 1765.78 630.396C1766.19 630.882 1768.27 634.402 1767.6 634.894C1766.06 635.954 1764.89 636.862 1763.83 635.327C1762.13 632.745 1762.2 630.754 1760.58 631.627C1760.39 631.703 1755.96 633.718 1755.96 633.718C1754.26 634.403 1754.91 635.451 1757.1 639.796C1757.97 641.407 1756.69 641.489 1754.7 642.514C1752.33 643.691 1752.82 642.186 1749.94 637.244C1749.3 636.196 1747.11 637.297 1744.82 637.572C1733.6 639.061 1726.84 634.816 1727.29 633.762C1730.43 625.294 1728.19 632.743 1744.27 630.815C1748.04 630.381 1743.81 628.601 1731.96 605.266C1728.59 598.561 1726.78 597.331 1720.22 583.845C1718.74 580.736 1718.53 584.531 1707.52 582.224C1691.96 578.929 1689.58 563.317 1694.41 554.163C1698.68 546.327 1700.16 549.437 1695.89 543.751C1695.25 542.703 1695.36 542.439 1699.91 540.161C1700.85 539.78 1701.91 541.314 1703.12 543.223C1703.69 544.084 1703.8 543.82 1708.91 541.313C1709.85 540.933 1709.7 540.558 1707.36 536.927C1706.56 535.504 1707.58 535.311 1710.62 533.642C1712.99 532.464 1713.24 539.562 1715.95 538.683C1719.97 537.271 1724.38 537.886 1727.81 539.332C1730.53 540.632 1730.53 540.632 1730.2 543.601C1729.43 549.802 1727.37 543.654 1719.92 544.709C1717.62 544.984 1718.38 544.679 1732.09 570.972C1733.75 574.005 1738.56 569.66 1749.79 572.528C1774.86 578.738 1784.2 607.233 1771.52 622.402Z" fill="#FA5F1A"/>
<path d="M1159.91 666.034C1156.12 666.079 1160.48 669.115 1157.38 669.566C1155.03 669.909 1158.21 669.192 1147.7 671.734C1145.5 672.307 1146.57 675.316 1137.06 636.058C1134.27 624.689 1133.86 623.609 1131.32 612.205C1130.99 610.859 1131.01 610.983 1120.78 613.737C1118.21 614.364 1120.91 616.377 1122.36 621.99C1128.98 647.489 1128.54 651.476 1133.58 673.913C1134.05 676.251 1132.66 675.44 1125.97 677.299C1124.02 677.835 1123.75 677.747 1120.03 663.475C1115.67 647.398 1116.98 645.941 1112.98 647.156C1102.76 650.035 1104.63 645.458 1107.78 661.078C1111.75 680.506 1112.85 680.22 1110.88 680.632C1097.92 682.897 1105.65 688.229 1094.45 648.585C1092.89 643.113 1092.96 642.723 1091.6 642.922C1082.35 644.646 1081.29 644.294 1082.25 646.56C1082.45 647.038 1090.6 683.961 1090.62 684.085C1090.98 685.679 1089.63 685.115 1085.96 686.028C1082.17 686.959 1082.9 685.84 1082.24 683.025C1077.52 660.162 1078.32 660.425 1076.23 660.856C1068.47 662.364 1067.34 662.402 1067.29 663.802C1067.22 666.85 1068.71 671.825 1070.14 677.314C1071 680.608 1071.64 684.185 1072 687.551C1072.17 688.667 1072.31 688.773 1070.22 689.203C1069.12 689.489 1067.28 689.884 1064.36 690.688C1063.99 690.743 1063.6 690.673 1063.33 690.585C1062.34 689.843 1061.16 681.784 1045.22 620.038C1044.6 617.471 1049.53 619.159 1047.25 615.692C1043.18 609.448 1041.68 604.348 1040.95 604.581C1040.35 604.795 1040.46 606.425 1040.36 609.224C1040.09 614.328 1040.06 615.852 1040.21 618.616C1040.3 620.121 1041.18 620.119 1042.39 619.691C1043.49 619.405 1043.89 619.599 1044.18 620.697C1048.55 640.318 1048.7 635.232 1061.63 689.313C1062.27 692.005 1061.93 690.535 1056.39 692.48C1055.54 692.73 1055.58 693.864 1056.82 693.684C1061.35 692.645 1062.23 691.757 1062.49 693.493C1062.65 694.609 1062.88 696.22 1063.45 696.644C1063.59 696.75 1063.97 696.696 1064.07 696.554C1064.6 695.844 1064.34 695.756 1063.64 693.578C1063.16 692.003 1063.62 691.683 1071.23 690.069C1157.44 672.596 1158.48 668.394 1159.5 671.917C1160.21 674.219 1161.62 671.735 1163.89 670.773C1170.67 667.761 1173.27 666.497 1173.21 666.125C1173.16 665.753 1170.52 665.883 1159.91 666.034ZM1080.21 687.371C1074.52 688.324 1073.73 688.946 1073.47 687.211C1071.61 676.974 1070.57 674.212 1068.65 665.375C1068.24 663.41 1070.97 663.899 1072.67 663.399C1072.92 663.363 1075.26 662.896 1075.5 662.86C1076.51 662.84 1076.73 663.442 1079.42 676.724C1081.59 687.297 1081.43 687.067 1080.21 687.371ZM1093.33 684.45C1092.6 684.682 1092.2 684.488 1092.09 683.744C1087.36 663.415 1085.35 654.844 1083.83 646.963C1083.63 645.599 1084 645.545 1091.07 644.518C1092.31 644.337 1096.69 659.653 1100.78 680.835C1101.14 683.314 1099.79 682.751 1093.33 684.45ZM1117.29 679.447C1115.47 679.965 1114.53 680.481 1113.75 679.456C1112.49 677.74 1111.53 672.055 1107.61 655.533C1106.68 651.743 1106.15 650.682 1106.94 650.06C1107.63 649.579 1109.26 649.469 1112.32 648.77C1114.64 648.18 1114.89 649.03 1116.4 655.015C1117.4 659.3 1119.15 666.135 1122.39 677.06C1122.83 678.388 1122.53 678.052 1117.29 679.447ZM1144.22 672.239C1143.82 672.931 1141.96 673.202 1136.75 674.845C1133.12 676.005 1135.18 667.478 1123.37 621.084C1122.43 617.294 1120.04 615.617 1122.69 614.725C1129.85 612.545 1129.76 612.811 1130.06 614.033C1133.53 625.683 1141 657.895 1143.99 670.627C1144.35 671.335 1144.54 671.813 1144.22 672.239Z" fill="#FC8F5F"/>
<path d="M1068.45 655.276C1069.55 655.876 1070.05 655.804 1070.65 654.704C1073.93 648.529 1075.77 648.135 1080.62 639.707C1083.23 635.022 1083.96 634.79 1085.31 635.354C1108.91 644.455 1108.1 644.068 1109.03 641.78C1109.57 640.308 1110 638.854 1110.42 637.4C1113.33 626.088 1117 619.098 1122.06 607.727C1122.81 605.971 1122.83 605.209 1123.29 604.889C1123.75 604.569 1124.42 604.851 1126.5 605.182C1128.31 605.426 1127.65 605.268 1128.42 593.129C1128.72 588.273 1125.83 593.631 1119.64 599.848C1116.45 603.099 1121.77 601.438 1120.72 603.744C1120.17 605.216 1119.77 606.794 1119.22 608.266C1113.11 622.828 1110.06 630.614 1108.37 634.658C1106.33 639.766 1106.26 639.271 1105.18 638.795C1095.69 635.363 1094.29 636.2 1084.68 631.9C1083.04 631.125 1082.99 631.639 1077.75 639.111C1073.97 644.472 1071.78 647.702 1070.42 649.672C1068.43 652.494 1068.04 652.424 1066.79 651.719C1058.3 647.257 1057.41 646.373 1056.65 647.244C1054.51 649.96 1056.42 649.175 1068.45 655.276Z" fill="#FC8F5F"/>
</g>
<g opacity="0.2">
<path fill-rule="evenodd" clip-rule="evenodd" d="M641.373 254.688C631.821 267.142 642.738 268.201 639.736 290.193C639.19 294.962 638.098 297.347 644.103 301.321C646.832 303.176 648.469 300.262 649.561 299.997C654.747 298.142 653.382 292.843 655.838 288.073C660.478 279.065 672.214 280.39 672.76 266.082C673.579 245.945 650.107 243.56 641.373 254.688ZM645.74 299.732C643.557 298.142 647.105 297.612 647.105 298.937C647.105 299.732 646.013 299.997 645.74 299.732ZM651.744 293.903C651.199 294.432 650.107 294.962 644.103 294.168C643.011 293.903 641.373 293.108 641.1 292.843C640.827 292.578 641.1 291.518 641.646 291.783C644.648 292.578 647.651 293.903 650.926 293.108C651.745 292.843 652.29 293.638 651.744 293.903ZM649.015 291.253C647.924 291.253 647.105 290.723 644.921 290.458C642.192 290.193 642.465 288.603 643.557 288.603C647.378 289.133 652.017 289.398 652.017 290.193C652.017 290.988 649.561 291.518 649.015 291.253ZM647.378 282.244C647.651 273.236 647.378 271.911 648.196 272.176C653.928 274.031 658.568 270.056 657.203 271.911C653.928 276.68 650.926 281.449 649.288 287.014C649.288 287.279 649.015 287.808 648.469 287.808C647.105 287.544 647.378 287.014 647.378 282.244ZM663.753 278.8C650.653 287.014 656.93 288.073 651.744 287.543C650.653 287.543 651.472 282.509 655.565 276.415C658.295 272.441 662.662 268.201 660.205 268.201C657.476 268.201 652.017 272.706 647.924 268.731C644.376 265.552 645.74 274.031 645.74 285.159C645.74 287.544 643.284 285.954 643.011 284.894C640.828 267.407 641.1 278.535 638.917 263.962C638.644 261.842 642.192 252.304 651.199 249.919C668.12 245.945 679.856 268.731 663.753 278.8ZM708.24 239.851C698.688 242.765 692.41 245.15 688.044 247.005C677.127 251.509 679.856 252.569 680.948 252.039C706.057 241.44 692.41 246.21 720.249 237.466C722.705 236.936 722.705 235.346 708.24 239.851ZM645.194 239.321C641.1 228.722 637.552 218.389 634.823 210.97C633.186 206.731 632.64 203.816 632.094 204.346C631.548 204.611 632.64 207.261 634.55 213.62C638.098 225.013 640.555 231.637 642.192 235.611C645.467 243.56 645.467 240.116 645.194 239.321ZM679.037 289.133C678.764 288.868 673.578 282.244 673.306 281.979C672.214 280.39 671.668 281.449 672.487 282.774C674.943 286.749 686.952 299.202 687.771 300.262C689.408 302.116 693.775 308.74 694.321 309.005C694.321 309.005 694.594 308.74 694.594 308.21C689.681 299.997 686.406 297.877 679.037 289.133ZM620.631 278.005C616.537 280.919 610.533 285.689 601.799 293.108C601.253 293.638 601.526 294.432 602.891 293.373C621.723 276.68 629.365 275.09 629.365 275.09C630.456 274.295 630.183 271.381 620.631 278.005ZM631.002 255.218C624.179 254.159 613.262 247.799 606.985 244.09C606.439 243.825 604.801 243.825 608.622 246.475C611.625 248.329 617.629 251.509 629.638 256.808C630.183 257.073 630.456 256.543 631.002 256.278C631.821 256.013 631.548 255.483 631.002 255.218ZM696.777 268.466C694.048 267.936 680.402 265.022 680.402 267.671C680.402 269.261 685.587 268.201 696.504 269.526C697.323 269.791 697.596 268.731 696.777 268.466ZM666.755 243.56C668.12 243.825 679.31 217.594 679.037 217.329C677.945 217.064 664.845 243.295 666.755 243.56Z" fill="#FA5F1A"/>
</g>
<path opacity="0.2" fill-rule="evenodd" clip-rule="evenodd" d="M283.57 404.931C283.951 404.177 285.475 400.03 285.665 399.653C285.856 399.276 287.57 396.071 286.808 394.185C286.427 393.431 286.427 392.866 285.665 392.3C284.903 391.735 285.475 391.735 287.189 387.022C287.57 386.079 287.57 385.702 288.332 384.194C290.428 380.424 292.142 374.579 289.856 370.809C287.761 367.604 284.713 367.227 283.951 366.284C283.76 366.096 283.951 365.342 284.141 365.153C284.903 362.514 286.046 363.08 285.094 358.555C284.903 357.99 284.141 356.858 283.76 356.293C280.331 352.711 280.903 354.031 278.808 352.711C276.331 351.014 276.712 352.145 276.522 350.637C276.522 351.203 274.998 340.646 274.807 338.572C274.807 337.818 274.807 337.818 271.569 337.629C270.426 337.629 268.33 337.252 267.949 337.252C267.759 337.252 267.568 336.875 267.378 336.687L266.044 334.048L265.092 331.785C264.14 329.712 263.949 329.523 263.759 328.769C263.759 328.203 263.187 328.015 262.997 328.015C262.235 328.015 254.805 328.392 254.043 328.203C249.853 327.826 231.946 329.146 226.612 330.466C223.374 331.408 223.755 329.712 220.136 329.146C219.755 329.146 210.992 326.318 208.516 327.072C206.23 327.449 205.849 327.261 203.753 328.58C203.563 328.769 202.801 329.335 202.61 329.523C202.039 330.089 200.515 333.105 200.324 333.671C200.324 333.671 200.134 333.859 199.181 336.31C198.991 336.687 195.181 347.244 194.038 351.203C193.467 353.842 191.371 357.99 189.657 362.137C189.466 362.514 184.514 375.71 183.942 377.219C183.942 377.219 183.752 378.727 181.085 387.21C180.894 388.153 181.085 387.964 181.085 388.53C180.704 392.866 185.276 396.071 185.466 396.448C189.085 400.407 189.276 399.464 243.947 423.029C243.757 422.841 250.996 426.045 250.996 426.045C260.139 429.816 265.854 426.045 266.425 425.857C270.997 423.595 273.855 415.488 275.76 411.906C275.95 411.529 276.331 411.718 276.712 411.529C282.808 410.021 282.617 406.628 283.57 404.931ZM283.951 395.317C284.332 396.636 282.808 397.013 282.998 396.636C282.998 396.259 283.76 394.374 283.951 395.317ZM278.998 354.031C281.855 355.35 283.379 357.801 283.57 358.555C283.951 361.383 284.522 361.194 282.808 364.588C282.427 365.342 282.427 365.719 281.855 365.53C279.188 364.399 278.617 364.588 278.617 363.834C278.617 363.834 277.474 360.629 276.903 355.727C276.903 355.162 276.903 354.596 276.522 353.465C276.331 352.523 277.093 353.088 278.998 354.031ZM273.855 338.761C273.855 339.326 274.617 344.793 274.998 346.49C275.188 346.867 276.522 356.67 276.522 356.67C276.522 360.44 278.808 364.211 277.093 363.457C275.76 362.891 276.141 362.703 275.569 361.194C275.379 360.629 274.998 358.367 274.617 355.162C274.617 354.973 273.283 346.113 273.283 345.736C273.474 344.982 274.045 344.228 271.569 344.605C269.664 344.982 266.616 342.154 267.378 339.892C267.759 338.761 266.616 339.326 264.902 339.326C255.948 339.515 252.329 339.703 251.758 339.703C252.71 339.703 233.661 338.761 232.899 338.572C232.899 338.572 227.946 337.818 214.611 337.064C211.564 336.875 211.373 337.064 210.611 336.498C208.325 334.99 203.753 333.859 210.04 334.613C209.849 334.613 215.945 334.99 216.135 334.99C219.755 335.744 273.855 338.761 273.855 338.761ZM234.994 339.703C251.377 341.211 266.044 340.457 266.044 340.457C266.235 340.457 266.235 340.646 266.235 340.646C265.854 343.285 268.33 344.793 268.711 344.982C270.235 346.113 271.759 345.547 272.14 345.736C272.331 345.736 274.998 362.137 274.617 362.326C274.426 362.514 268.521 359.875 268.33 359.875C267.759 359.686 225.47 344.605 220.326 341.588C218.993 340.834 211.564 337.441 214.992 338.006C214.04 337.818 234.613 339.515 234.994 339.703ZM249.281 331.785C250.615 331.785 252.519 331.22 253.853 331.408C254.424 331.408 257.091 331.031 257.282 331.597C257.853 334.802 260.33 334.99 261.663 335.556C262.044 335.744 262.425 335.744 262.425 335.933C262.616 337.064 262.616 337.064 261.663 336.875C264.711 337.252 221.279 334.99 221.279 334.99C218.231 335.179 222.993 333.671 230.994 333.293C230.994 333.293 237.852 331.974 243.757 331.785C243.757 331.785 243.376 331.974 249.281 331.785ZM226.803 331.22C238.423 328.58 263.187 328.769 263.187 329.146L266.425 336.498C266.616 336.875 266.806 337.252 266.425 337.252C262.997 337.252 263.378 336.875 263.378 335.367C263.378 334.613 262.806 335.179 261.473 334.613C260.711 334.236 259.568 334.236 258.615 332.728C257.853 331.408 259.187 330.466 256.52 330.466C254.615 330.466 254.996 330.654 252.329 330.654C251.377 330.654 250.615 330.843 249.091 331.031L243.376 331.22C237.852 331.408 239.756 331.22 237.471 331.785C237.852 331.597 232.137 332.539 231.565 332.728C231.565 332.728 227.755 332.728 222.041 333.859C217.088 334.802 217.469 334.99 206.42 333.859C204.325 333.482 223.755 331.974 226.803 331.22ZM216.135 328.769C217.659 329.146 217.659 329.146 218.04 329.335C219.183 329.9 220.136 329.712 221.66 330.466L222.803 331.031C222.803 331.031 222.041 331.22 221.85 331.22C221.85 331.22 222.612 331.22 208.706 332.351C203.753 332.728 204.325 333.671 203.182 332.162C202.039 330.466 205.277 325.753 216.135 328.769ZM202.039 332.539C202.039 332.351 202.42 332.351 202.42 332.351C202.801 332.728 202.991 333.293 203.944 333.671C205.087 334.236 203.944 334.048 207.563 335.744C207.754 335.933 211.373 337.629 211.564 337.629C213.468 338.384 219.755 342.154 222.993 343.097C223.755 343.285 245.281 352.334 252.52 354.408C260.52 356.858 281.665 365.719 282.046 365.907C286.999 368.17 288.904 369.489 289.856 372.506C291.38 377.596 286.999 383.628 285.284 388.718C284.903 390.227 284.332 390.604 282.617 393.997C281.665 396.071 281.474 396.825 280.331 396.448C279.379 396.071 278.808 395.882 278.236 395.505C278.046 395.505 279.379 392.866 279.379 392.677C278.808 393.62 283.951 383.063 284.522 379.292C284.903 377.407 284.903 375.145 284.332 373.448C283.57 371.375 279.76 368.924 278.427 368.358C276.141 367.416 278.617 368.547 274.617 366.662C273.855 366.284 242.804 354.785 242.804 354.785C242.614 354.785 229.279 349.506 228.136 348.941L219.374 345.924C210.421 342.908 204.896 339.326 204.515 338.949L201.086 335.933C199.943 335.179 201.658 333.105 202.039 332.539ZM182.799 384.759C183.752 381.932 183.371 383.251 185.085 384.194C185.085 384.194 185.656 384.759 190.8 387.21C191.943 387.776 192.324 387.022 191.943 386.833C190.8 386.268 187.371 385.137 185.085 382.874C184.323 382.12 183.942 382.12 183.942 381.555C184.133 380.989 184.895 378.727 184.895 378.538C185.085 378.161 185.656 378.727 186.799 379.858C187.371 380.424 189.276 381.743 191.181 382.497C191.562 382.686 191.752 382.497 192.324 382.874C192.895 383.251 193.467 382.874 192.895 382.309C191.752 381.366 191.752 382.12 189.085 380.612C185.847 378.538 185.847 377.973 185.466 377.596C184.704 377.03 185.085 376.465 186.037 374.391C186.799 372.317 186.418 375.145 193.276 378.538C193.848 378.915 194.038 379.104 194.419 378.915C195.181 378.35 192.324 377.596 190.99 376.653C190.609 376.276 188.323 374.391 187.942 373.825C186.799 372.129 186.228 373.26 187.942 369.678C188.133 369.489 188.323 369.301 188.514 369.489C190.038 371.186 189.466 371.563 195.372 374.956C196.134 375.522 196.515 374.768 195.753 374.391C190.609 371.563 190.8 371.186 188.704 368.17C188.704 367.981 188.704 367.793 188.704 367.604L191.562 359.686C192.324 358.555 194.61 352.9 195.562 349.129C195.753 348.375 199.372 338.572 199.562 337.818C200.705 334.613 198.991 337.252 211.373 343.662C216.135 346.113 275.95 367.604 279.379 370.055C282.808 372.506 283.379 374.014 283.57 376.465C284.141 381.366 281.284 385.702 278.808 391.735C278.617 392.112 277.284 395.317 276.903 395.317C276.331 395.317 275.569 394.751 271.569 393.054C269.092 391.923 261.282 388.53 258.615 388.341C255.567 387.964 251.186 390.038 250.234 394.374C248.71 401.538 255.567 403.8 267.568 408.701C270.807 410.021 270.616 409.079 269.473 411.718C268.711 413.415 266.044 417.562 263.949 418.882C262.235 419.824 262.616 419.447 261.282 420.013C255.948 422.841 217.85 404.177 217.469 404.177C217.469 404.177 210.04 401.349 206.42 400.03C200.705 397.956 187.942 390.415 187.561 390.038C186.799 389.661 186.418 389.095 185.656 388.53C183.942 387.776 182.609 385.891 182.799 384.759ZM274.045 413.98C271.188 419.824 272.14 418.693 269.283 422.275C266.997 425.103 263.378 426.799 258.806 426.422C256.139 426.234 255.567 426.234 248.9 423.595C241.471 420.767 227.184 414.169 194.038 400.595C190.609 399.276 184.514 395.317 183.561 392.112C183.18 391.169 181.847 390.415 182.418 387.21C182.418 387.022 182.609 387.022 182.799 387.587C184.133 390.604 202.61 400.03 207.754 401.349C214.992 403.234 251.567 422.275 260.711 420.955C262.044 420.767 262.616 420.39 263.378 420.013C267.568 418.505 269.283 414.169 271.378 410.21C271.569 409.833 272.712 410.21 273.093 410.398C275.76 411.529 275.379 410.964 274.045 413.98ZM280.712 408.89C277.665 411.341 276.522 411.341 273.474 410.021C275.379 410.775 257.472 404.743 253.472 401.161C248.329 396.448 252.71 388.341 258.806 389.284C263.187 390.038 278.617 397.767 281.665 397.956C283.76 398.144 285.475 396.448 285.284 395.694C285.094 394.751 284.713 394.185 284.332 393.997C284.141 393.808 284.522 393.243 284.522 393.054C285.094 392.3 286.618 394.94 285.475 397.39C284.903 398.71 284.332 399.464 282.998 400.03C279.95 401.161 278.808 400.03 276.903 399.841C276.712 399.841 276.522 399.841 276.331 400.03C276.141 400.218 276.712 400.595 277.093 400.595C278.046 400.595 279.379 401.726 282.427 401.161C282.617 401.161 283.57 400.784 283.76 400.784C284.332 400.784 283.379 401.915 283.379 402.857C283.379 403.611 280.141 404.177 279.379 404.177C278.808 404.177 277.093 404.177 274.998 403.234C274.617 403.046 273.855 403.234 274.236 403.611C274.617 404.177 276.903 404.554 277.665 404.743C279.76 404.931 280.141 404.931 282.617 404.366C282.617 404.366 282.808 404.366 282.617 404.554C281.855 407.382 281.474 407.005 279.95 407.382C278.236 407.759 275.188 407.57 273.474 406.816C272.331 406.439 272.331 407.382 273.093 407.57C276.522 408.324 278.046 408.702 280.522 407.947C281.093 407.57 281.665 408.136 280.712 408.89ZM261.854 391.735C259.187 390.415 253.853 391.546 254.043 396.448C254.234 398.144 255.758 399.841 256.139 400.218C256.71 400.595 258.996 402.48 261.092 401.726C264.14 400.972 264.711 399.653 265.092 397.956C265.664 396.636 265.854 393.808 261.854 391.735ZM263.759 398.71C263.378 399.841 260.901 401.726 258.806 400.784C257.472 400.03 257.091 399.841 256.71 399.275C256.139 398.333 255.567 398.144 255.377 396.636C254.805 393.431 257.663 391.735 260.52 392.112C261.092 392.112 263.759 393.431 264.33 397.013C264.33 397.579 263.949 398.144 263.759 398.71Z" fill="#FA5F1A"/>
</g>
</g>
<defs>
<filter id="filter0_b_195_370" x="-56" y="-56" width="2032" height="972" filterUnits="userSpaceOnUse" color-interpolation-filters="sRGB">
<feFlood flood-opacity="0" result="BackgroundImageFix"/>
<feGaussianBlur in="BackgroundImageFix" stdDeviation="28"/>
<feComposite in2="SourceAlpha" operator="in" result="effect1_backgroundBlur_195_370"/>
<feBlend mode="normal" in="SourceGraphic" in2="effect1_backgroundBlur_195_370" result="shape"/>
</filter>
<filter id="filter1_f_195_370" x="-643" y="-956" width="1989" height="1989" filterUnits="userSpaceOnUse" color-interpolation-filters="sRGB">
<feFlood flood-opacity="0" result="BackgroundImageFix"/>
<feBlend mode="normal" in="SourceGraphic" in2="BackgroundImageFix" result="shape"/>
<feGaussianBlur stdDeviation="260" result="effect1_foregroundBlur_195_370"/>
</filter>
<clipPath id="clip0_195_370">
<rect width="1921" height="646" fill="white" transform="translate(-1 134)"/>
</clipPath>
</defs>
</svg>
