<svg width="36" height="36" viewBox="0 0 36 36" fill="none" xmlns="http://www.w3.org/2000/svg">
<circle cx="18" cy="18" r="18" fill="#65E1E1" fill-opacity="0.16"/>
<circle cx="18" cy="18" r="12" fill="#65E1E1"/>
<path d="M16.4693 23.2747C16.098 23.2747 15.7408 23.1279 15.4763 22.865L12.4154 19.8214C11.8637 19.2728 11.8612 18.3811 12.4098 17.8296C12.9581 17.2779 13.8499 17.2754 14.4016 17.824L16.3785 19.7896L21.5149 13.7003C22.0166 13.1056 22.9051 13.0304 23.4996 13.5318C24.0942 14.0334 24.1697 14.922 23.668 15.5166L17.546 22.7745C17.2922 23.0754 16.9243 23.2562 16.5311 23.2734C16.5104 23.2743 16.49 23.2747 16.4693 23.2747Z" fill="white"/>
</svg>
