<svg width="24" height="24" viewBox="0 0 24 24" fill="none" xmlns="http://www.w3.org/2000/svg">
<path d="M12 0C5.38455 0 0 5.38455 0 12C0 18.6154 5.38455 24 12 24C18.6154 24 24 18.6154 24 12C24 5.38455 18.6154 0 12 0ZM12 22.1275C10.8404 22.1275 9.70455 21.9327 8.62099 21.5477L8.51168 21.5097V20.8539C8.51168 20.1505 9.08673 19.5754 9.7901 19.5754H12.0048C13.7394 19.5754 15.1509 18.164 15.1509 16.4293C15.1509 15.7259 15.7259 15.1509 16.4293 15.1509H21.6333L21.5525 15.3743C20.122 19.4139 16.282 22.1275 12 22.1275ZM13.2784 16.4246C13.2784 17.1279 12.7034 17.703 12 17.703H9.78535C9.03446 17.703 8.30733 17.9739 7.73703 18.4634C7.17149 18.9481 6.79604 19.6135 6.67723 20.3406L6.63446 20.5925L6.42059 20.4499C5.2705 19.6895 4.30574 18.72 3.54535 17.5747L3.40277 17.3608L3.65465 17.318C4.38178 17.1992 5.05188 16.8238 5.53188 16.2582C6.02139 15.6879 6.29228 14.9608 6.29228 14.2099C6.29228 13.5065 6.86733 12.9315 7.57069 12.9315H9.78535C11.52 12.9315 12.9315 11.52 12.9315 9.78535C12.9315 8.05069 11.52 6.63921 9.78535 6.63921C9.08198 6.63921 8.50693 6.06416 8.50693 5.36079C8.50693 4.5196 8.17901 3.72594 7.5802 3.13188L7.41386 2.96554L7.62772 2.86574C9.00119 2.20515 10.4697 1.87248 12 1.87248C14.3192 1.87248 16.5909 2.6804 18.3921 4.14891L18.7057 4.40554L18.3018 4.44356C17.5224 4.5196 16.8 4.88079 16.2725 5.46535C15.7402 6.0499 15.4455 6.8103 15.4455 7.59921C15.4455 9.3196 16.8475 10.7216 18.5679 10.7216H22.0515L22.0657 10.8689C22.1085 11.2444 22.1275 11.6246 22.1275 12C22.1275 12.3707 22.1085 12.7509 22.0657 13.1311L22.0515 13.2784H16.4246C14.6899 13.2784 13.2784 14.6899 13.2784 16.4246ZM5.57941 4.17267L5.65069 4.11564L5.73624 4.14416C6.27802 4.31049 6.63921 4.8 6.63921 5.36554C6.63921 7.1002 8.05069 8.51168 9.78535 8.51168C10.4887 8.51168 11.0638 9.08673 11.0638 9.7901C11.0638 10.4935 10.4887 11.0685 9.78535 11.0685H7.57069C5.83604 11.0685 4.42455 12.48 4.42455 14.2147C4.42455 14.918 3.8495 15.4931 3.14614 15.4931H2.4903L2.45228 15.3838C2.06733 14.3002 1.87248 13.1596 1.87248 12.0048C1.87248 8.95842 3.22218 6.10693 5.57941 4.17267ZM18.5632 8.85386C17.8741 8.85386 17.3085 8.29307 17.3085 7.59921C17.3085 6.88158 17.8931 6.29703 18.6107 6.29703H20.3644L20.4119 6.36832C20.8824 7.07168 21.2673 7.83208 21.5477 8.62574L21.6285 8.84911H18.5632V8.85386Z" fill="#A8A8A8"/>
</svg>
