<svg width="18" height="24" viewBox="0 0 18 24" fill="none" xmlns="http://www.w3.org/2000/svg">
<path fill-rule="evenodd" clip-rule="evenodd" d="M15.3265 6C15.3265 9.30882 12.5768 12 9.19608 12C5.81533 12 3.06565 9.30882 3.06565 6C3.06565 2.69118 5.81533 0 9.19608 0C12.5768 0 15.3265 2.69118 15.3265 6ZM13.4333 6C13.4333 3.71471 11.5311 1.85294 9.19608 1.85294C6.86111 1.85294 4.95887 3.71471 4.95887 6C4.95887 8.28529 6.86111 10.1471 9.19608 10.1471C11.5311 10.1471 13.4333 8.28529 13.4333 6ZM8.31051 14.4747H9.67283C14.2548 14.4747 17.983 18.3082 17.983 23.0195C17.983 23.5611 17.5561 24 17.0294 24C16.5026 24 16.0757 23.5611 16.0757 23.0195C16.0757 19.3914 13.2012 16.4358 9.67283 16.4358H8.31051C4.78211 16.4358 1.90761 19.3914 1.90761 23.0195C1.90761 23.5611 1.48075 24 0.95399 24C0.427226 24 0.000366211 23.5611 0.000366211 23.0195C0.000366211 18.3082 3.72858 14.4747 8.31051 14.4747Z" fill="#A8A8A8"/>
</svg>
