<svg width="120" height="121" viewBox="0 0 120 121" fill="none" xmlns="http://www.w3.org/2000/svg">
<path fill-rule="evenodd" clip-rule="evenodd" d="M119.458 20.2059C120.809 23.1179 119.555 26.7093 116.562 27.9712C109.513 30.9812 104.299 34.8638 100.822 39.6191C96.5748 45.541 94.2564 53.4024 94.0632 63.207H112.313C115.5 63.207 118.107 65.8268 118.107 69.0309V107.178C118.107 110.381 115.5 113.002 112.313 113.002H74.365C71.1785 113.002 68.5714 110.381 68.5714 107.178V77.3786C68.5714 62.8187 69.8257 51.4611 72.3363 43.3085C74.8478 35.0579 79.5783 27.5839 86.435 20.9834C92.1311 15.5477 99.0844 10.9856 107.195 7.49128C110.092 6.22943 113.375 7.49128 114.727 10.3062L119.458 20.2059ZM50.8877 20.2913C52.237 23.2006 50.984 26.7888 47.9963 28.0495C40.9607 31.0568 35.7563 34.9359 32.2867 39.6858C28.046 45.6024 25.733 53.4566 25.5402 63.2523H43.6593C46.8398 63.2523 49.442 65.8697 49.442 69.0709V107.183C49.442 110.383 46.8398 113.002 43.6593 113.002H5.78269C2.60221 113.002 0 110.383 0 107.183V77.411C0 62.9614 1.34929 51.616 3.85513 43.275C6.36096 35.0319 10.9871 27.5646 17.83 21.0681C23.4199 15.5404 30.4555 10.9825 38.6476 7.49127C41.539 6.2296 44.8158 7.49127 46.1651 10.3026L50.8877 20.2913Z" fill="#FA5F1A" fill-opacity="0.24"/>
</svg>
