<svg width="67" height="58" viewBox="0 0 67 58" fill="none" xmlns="http://www.w3.org/2000/svg">
<path d="M66.0441 1.80308C65.7264 1.15667 65.2433 0.662364 64.5824 0.345499L64.557 0.332825H55.9772L55.9518 0.358174C55.9264 0.370849 55.9009 0.396198 55.8755 0.408872C55.8247 0.446896 55.7738 0.48492 55.7103 0.510269C54.8078 0.97923 54.3375 1.8918 54.5409 2.77902C54.7697 3.75497 55.5577 4.37602 56.6 4.3887C57.261 4.40137 57.9219 4.40137 58.6338 4.3887C58.8625 4.3887 59.104 4.3887 59.3583 4.3887L54.1977 9.9275C53.8164 9.52191 53.435 9.11633 53.0664 8.72341C52.2021 7.78549 51.3123 6.82222 50.3463 5.9857C46.7111 2.77902 42.3767 0.915857 37.4449 0.446896C37.3432 0.434222 37.2415 0.408872 37.1271 0.383523C37.0763 0.370849 37.0255 0.358174 36.9746 0.345499L33.6444 0.332825H33.619C33.2376 0.396198 32.8436 0.459571 32.4496 0.522944C31.6234 0.64969 30.759 0.789111 29.9328 0.966555C21.137 2.93112 13.9808 10.5105 12.5445 19.3954C12.1759 21.6895 12.1124 23.8569 12.3539 25.9862C12.3666 26.1256 12.3157 26.3158 12.2522 26.3918C11.3243 27.3297 10.4091 28.255 9.43038 29.2183L8.73129 29.9154C8.3881 29.5478 8.04491 29.1802 7.70172 28.8253C6.65944 27.71 5.68071 26.6707 4.65114 25.606C4.29524 25.2384 3.86307 24.9596 3.45632 24.8202C2.65555 24.554 1.75308 24.8962 1.25736 25.644C0.761643 26.4045 0.825197 27.3678 1.38447 28.0395C1.71495 28.4324 2.07085 28.8 2.41404 29.1549C2.56657 29.307 2.70639 29.4591 2.85892 29.6238L3.96476 30.8026C4.98162 31.8926 6.01119 32.9826 7.02805 34.06C7.52377 34.5796 8.07033 34.8585 8.62961 34.8711C9.18888 34.8838 9.74815 34.6176 10.2566 34.1233C11.0192 33.3629 11.7946 32.5897 12.5445 31.8419C12.8369 31.5504 13.1292 31.2589 13.4216 30.9547L15.3282 35.0739C15.3155 35.0866 15.3028 35.0866 15.29 35.0993C15.1756 35.1753 15.0231 35.2767 14.896 35.4035C13.6504 36.6456 12.4047 37.8877 11.159 39.1425C8.62961 41.6647 6.0239 44.2757 3.4309 46.8233C2.31236 47.9133 1.07941 49.2568 0.723511 51.1326V52.831L0.736222 52.8564C0.87604 53.1479 0.990437 53.4521 1.11754 53.7436C1.38447 54.4027 1.6514 55.0744 2.08356 55.6321C3.11313 56.9249 4.56216 57.6854 6.16372 57.7868C6.27811 57.7995 6.3798 57.7995 6.4942 57.7995C8.07033 57.7995 9.63376 57.1404 10.8286 55.949C13.8156 52.9831 16.8535 49.9666 19.7769 47.0387L21.9759 44.846C22.3699 44.4531 22.7513 44.0475 23.1199 43.6546C23.2724 43.4899 23.4249 43.3251 23.5775 43.1603C25.5603 44.2884 27.4924 45.0869 29.488 45.5938C35.6908 47.1908 42.097 46.2022 47.5118 42.8181C52.9266 39.4467 56.6 34.1487 57.8711 27.9128C58.8244 23.2358 58.3414 18.6476 56.4475 14.2749C56.2568 13.8313 56.295 13.6031 56.6127 13.2609C57.9728 11.8414 59.2947 10.4091 60.6929 8.90086C61.1123 8.44457 61.5445 7.97561 61.9894 7.50665V8.07701C61.9894 8.71074 61.9894 9.29377 61.9894 9.8768C61.9894 10.6753 62.3199 11.2837 62.9808 11.6766C63.4384 11.9554 63.9723 12.0442 64.4934 11.9174C65.0273 11.7907 65.4721 11.4611 65.7645 10.9922C65.828 10.8908 65.8916 10.7767 65.9552 10.6626L66.0568 10.4852V1.82843L66.0441 1.80308ZM29.1066 5.41534C33.3012 3.99579 37.6864 4.04648 41.792 5.55476C45.6815 6.98699 49.0244 9.66133 51.2234 13.1088L37.2288 28.1409C37.1907 28.1029 37.1653 28.0775 37.1271 28.0395C37 27.9128 36.8729 27.8114 36.7585 27.6846C35.2841 26.2144 33.8096 24.7441 32.3225 23.2612C30.0854 21.0305 27.8483 18.7997 25.6112 16.569C24.9884 15.9479 24.4291 15.6437 23.8571 15.6437C23.2851 15.6437 22.7258 15.9479 22.1157 16.5563C21.3022 17.3675 20.476 18.1913 19.6625 19.0025C18.6584 20.0038 17.6415 21.0178 16.6374 22.0191C16.5484 22.1078 16.4594 22.1965 16.3577 22.2852C16.0908 19.294 17.3111 15.7451 19.7261 12.5004C22.192 9.1797 25.6112 6.58141 29.1066 5.41534ZM17.1331 27.2537C18.8363 25.5806 20.4887 23.9203 22.2428 22.1712C22.7767 21.6388 23.3105 21.1065 23.8444 20.5615C23.8825 20.5995 23.9207 20.6375 23.9588 20.6756C24.0859 20.7896 24.1876 20.891 24.302 21.0051C28.0135 24.7061 31.7251 28.4071 35.4366 32.1081C36.123 32.7925 36.7204 33.1094 37.2924 33.0967C37.8771 33.084 38.4618 32.7418 39.1481 32.0067C41.5632 29.4084 43.9909 26.8101 46.406 24.2118C48.5541 21.905 50.7022 19.5982 52.8504 17.2914C52.9393 17.1901 53.0156 17.0887 53.1046 16.9873C53.13 16.9619 53.1427 16.9366 53.1681 16.9112L53.2317 16.9239C53.3207 17.3041 53.4096 17.6844 53.5113 18.0646C53.7274 18.9265 53.9435 19.8137 54.0706 20.6882C54.6299 24.63 53.9562 28.5718 52.1131 32.07C50.2828 35.5682 47.4229 38.382 43.8511 40.2198C38.7668 42.8308 32.8055 42.9702 27.4924 40.6C22.1793 38.2299 18.3025 33.7051 16.8662 28.1789C16.7772 27.7733 16.8408 27.5452 17.1331 27.2537ZM5.47734 50.5243C7.9178 48.0907 10.3964 45.6192 12.7987 43.2364L14.502 41.538C15.2519 40.7902 16.0018 40.0424 16.7391 39.2946L17.667 38.3693L20.171 40.8916C20.1583 40.9042 20.1456 40.9296 20.1201 40.9423C18.8872 42.1717 17.6542 43.4011 16.4213 44.6306C13.5995 47.4443 10.7777 50.2581 7.95594 53.0845C7.38395 53.6549 6.76112 53.845 6.06203 53.6549C5.41378 53.4774 4.98162 53.0338 4.82909 52.3494C4.68927 51.6903 4.89264 51.1073 5.47734 50.5243Z" fill="#FA5F1A"/>
</svg>
