<svg width="67" height="66" viewBox="0 0 67 66" fill="none" xmlns="http://www.w3.org/2000/svg">
<path d="M63.544 44.19C63.544 44.1523 63.544 44.0894 63.544 44.0266C63.544 43.9763 63.544 43.9261 63.544 43.8758V38.9874C63.544 30.7815 63.544 22.2991 63.5315 13.8418C63.5315 13.5402 63.5566 13.49 63.7702 13.3894C65.1774 12.7234 65.7176 11.4416 66.0317 10.4112L66.0443 10.386L66.0568 8.87806L65.994 8.76496C65.8935 8.56389 65.7804 8.35026 65.6925 8.1492C65.4538 7.64654 65.2025 7.13131 64.8256 6.67892C64.0592 5.78669 62.9535 5.34687 61.4333 5.34687C56.2568 5.35943 50.7789 5.34687 46.394 5.34687L40.1748 5.35943C40.1748 5.19607 40.1748 5.04527 40.1748 4.8819C40.1622 2.5948 39.0943 1.14965 36.9081 0.471056C36.8956 0.471056 36.8704 0.445923 36.8579 0.445923C36.8327 0.433357 36.795 0.408224 36.7699 0.395657L36.6568 0.332825H30.224L30.0984 0.357958C28.264 0.923451 27.2338 1.86594 26.8317 3.34879C26.6935 3.88915 26.6433 4.44208 26.5804 5.0327C26.5679 5.1458 26.5553 5.2589 26.5427 5.372H5.91248C2.93479 5.372 1.87941 6.08829 0.761203 8.82779L0.723511 8.89062V10.2981L0.748639 10.3986C1.20095 11.9443 2.01761 12.9747 3.23633 13.5277C3.23633 13.5654 3.23633 13.6282 3.23633 13.691C3.23633 13.7413 3.23633 13.7916 3.23633 13.8418V18.7302C3.23633 26.9361 3.23633 35.4185 3.2489 43.8758C3.2489 44.1774 3.22377 44.2277 3.01018 44.3282C1.603 44.9942 1.06274 46.276 0.748639 47.3065L0.736075 47.3316L0.723511 48.8396L0.786331 48.9527C0.899408 49.1537 1.01249 49.3799 1.12556 49.5936C1.38941 50.1214 1.65325 50.6617 2.05531 51.1141C3.03531 52.22 4.42992 52.3582 5.40992 52.3582C12.0186 52.3456 18.8912 52.3456 24.9597 52.3582H31.5935V57.5356C30.4125 58.1011 29.6335 59.0185 29.2817 60.25C28.6535 62.4491 29.8848 64.7362 32.0835 65.4525C32.184 65.4902 32.2971 65.5279 32.3976 65.5782C32.4604 65.6033 32.5107 65.6284 32.5735 65.641L32.6489 65.6662H34.0938L34.1692 65.641C35.1492 65.3143 36.2422 64.8368 36.9584 63.7058C37.6117 62.6753 37.8127 61.4564 37.4986 60.2877C37.1971 59.1316 36.4307 58.1765 35.3502 57.5984C35.2874 57.5607 35.2245 57.5356 35.1617 57.4979V52.3582H60.8679C63.8833 52.3582 64.8884 51.6796 66.0191 48.9024L66.0568 48.827V47.4196L66.0317 47.319C65.5794 45.7733 64.7627 44.7429 63.544 44.19ZM33.4027 62.1475C33.2268 62.1601 33.0509 62.0721 32.9002 61.9339C32.7494 61.7831 32.6615 61.5946 32.6489 61.4061C32.6489 61.2302 32.7243 61.0417 32.8625 60.8909C33.0007 60.7401 33.1891 60.6521 33.3776 60.6521H33.3902C33.5661 60.6521 33.7545 60.7275 33.8927 60.8657C34.0435 61.004 34.1315 61.1925 34.1315 61.381C34.144 61.7831 33.7922 62.1475 33.4027 62.1475ZM35.8653 3.86402C36.3553 3.87658 36.6191 4.14048 36.6568 4.66827C36.6694 4.86934 36.6694 5.08297 36.6694 5.30917H30.1361C30.1361 5.08297 30.1361 4.86934 30.1486 4.65571C30.1863 4.14048 30.4502 3.86402 30.9402 3.86402C32.5861 3.83888 34.2445 3.83888 35.8653 3.86402ZM60.0009 13.9424V43.7753H6.80454V13.9424H60.0009ZM61.8353 10.3735C61.6845 10.3986 61.5338 10.3986 61.3579 10.386C61.3076 10.386 61.2574 10.386 61.2197 10.386C52.9022 10.386 44.5848 10.386 36.2674 10.386H29.7592C21.693 10.386 13.6268 10.386 5.56069 10.386C5.30941 10.386 5.033 10.386 4.80684 10.3358C4.48018 10.2604 4.25402 9.97134 4.25402 9.63205C4.25402 9.30532 4.48018 9.01629 4.81941 8.92832C5.00787 8.87806 5.24659 8.87806 5.44761 8.87806C24.0802 8.87806 42.7127 8.87806 61.3579 8.87806H61.4458C61.584 8.87806 61.7222 8.87806 61.8479 8.89062C62.2499 8.95345 62.5389 9.26762 62.5389 9.63205C62.5263 9.99648 62.2374 10.3106 61.8353 10.3735ZM4.94505 47.3442C5.05813 47.3316 5.1712 47.3316 5.28428 47.3316H5.56069H30.3497H40.3004C47.2735 47.3316 54.2466 47.3316 61.2197 47.3316C61.4709 47.3316 61.7474 47.3316 61.9735 47.3819C62.3002 47.4573 62.5263 47.7463 62.5263 48.0856C62.5263 48.4123 62.3002 48.7014 61.9609 48.7893C61.7725 48.8396 61.5463 48.8396 61.3327 48.8396C42.7002 48.8396 24.0676 48.8396 5.42248 48.8396H5.32197C5.18377 48.8396 5.05813 48.8396 4.93248 48.827C4.53043 48.7642 4.24146 48.45 4.24146 48.0856C4.25402 47.7212 4.543 47.407 4.94505 47.3442Z" fill="#65E1E1"/>
</svg>
