<svg width="63" height="66" viewBox="0 0 63 66" fill="none" xmlns="http://www.w3.org/2000/svg">
<path d="M59.9405 27.5132L59.8467 27.3627C59.6122 26.9692 59.3777 26.564 59.1431 26.1704C58.6155 25.2791 58.0995 24.3762 57.5718 23.4849L57.1966 22.8482C59.7881 19.9427 60.304 16.8057 58.6975 13.796C57.9471 12.3838 56.8565 11.3188 55.4494 10.6127C53.6318 9.70983 51.7087 9.52462 49.727 10.0687C49.387 9.48989 49.0586 8.91111 48.7186 8.33232C47.7453 6.66543 46.7486 4.94065 45.7284 3.26218C45.2476 2.46346 44.6965 1.83837 44.1219 1.41007C42.9141 0.507169 41.4484 0.159899 40.0178 0.414564C38.5051 0.680804 37.18 1.59528 36.2888 2.97279C31.0003 11.1684 24.164 18.0443 15.9909 23.4039C14.5837 24.2952 12.6254 25.4064 11.2183 26.1936C11.101 26.2399 10.9838 26.2978 10.8665 26.3672L9.06069 27.3859L8.79099 27.5364L8.59164 27.6521C7.3604 28.3467 5.76564 29.2611 4.24124 30.1409C2.41196 31.1943 1.27452 32.757 0.864103 34.7827C0.852376 34.8059 0.84065 34.8406 0.828924 34.8638C0.805472 34.9101 0.793746 34.9448 0.770293 34.9911L0.723389 35.1069V37.0284L0.758567 37.1326C0.828924 37.3178 0.887555 37.5262 0.946186 37.7345C1.09863 38.2207 1.23934 38.7185 1.50904 39.1931C3.51422 42.6426 5.54284 46.1153 7.57147 49.5302C8.40403 50.9308 9.70563 51.9032 11.4176 52.3893C13.1297 52.8871 14.83 52.725 16.4951 51.9263C16.5185 51.961 16.542 51.9958 16.5654 52.0421C17.2573 53.2228 17.9491 54.4035 18.6292 55.5842L18.641 55.5958C20.1302 58.154 21.678 60.7933 23.2024 63.3978C24.0467 64.8332 25.4187 65.6666 26.9431 65.6666C27.7287 65.6666 28.5027 65.4583 29.2649 65.0415C29.9215 64.6827 30.5899 64.3007 31.2231 63.9303L31.4108 63.8261C33.8733 62.4023 34.5182 59.9946 33.0876 57.5405C32.0674 55.7926 31.0472 54.0447 30.0153 52.2852L28.4089 49.5186C28.362 49.4375 28.3033 49.3334 28.2447 49.2523L26.4858 46.2542C28.3033 45.2472 29.7574 44.5063 31.1997 43.8696C37.2387 41.2072 43.3949 39.4362 49.4925 38.6143C50.9348 38.4175 52.4358 38.3017 53.8781 38.1744C54.9452 38.0818 56.0592 38.0008 57.138 37.8734C59.0728 37.6651 60.6558 36.6117 61.4884 35.0143C62.3209 33.3937 62.2506 31.4952 61.2773 29.8052C60.8434 29.0296 60.3861 28.2541 59.9405 27.5132ZM51.6149 13.2751C52.682 13.1478 54.4996 13.6919 55.4259 15.162C56.282 16.5279 56.235 18.3221 55.3204 19.6186L51.6149 13.2751ZM24.7386 39.2741C25.4656 38.7648 25.7118 38.0008 25.407 37.2136C25.3132 36.959 25.1842 36.7506 25.0552 36.5307L25.0317 36.4844C23.8826 34.5049 22.7217 32.5371 21.5608 30.5576L18.852 25.9274C18.8403 25.9158 18.8403 25.9042 18.8286 25.8926L19.0045 25.7884L18.9107 25.6843C27.0604 20.1627 33.9202 13.171 39.279 4.89435C39.7246 4.21139 40.3461 3.82939 40.9793 3.84096C41.6242 3.85254 42.2457 4.28084 42.6679 4.99853C44.0633 7.35997 45.447 9.74456 46.7955 12.0481L46.8893 12.1986C47.3701 13.032 47.8626 13.8655 48.3433 14.6874C49.0469 15.8797 49.7388 17.072 50.4423 18.2643L50.454 18.2758C52.9634 22.5588 55.5549 26.9923 58.0878 31.3795C58.3575 31.8541 58.5099 32.456 58.4513 32.9075C58.3458 33.8798 57.6539 34.3544 56.282 34.4123C51.5329 34.6091 46.772 35.2805 42.1167 36.4381C35.3507 38.1165 29.4759 40.4317 24.1405 43.5224C21.5725 45.0156 18.9576 46.4973 16.413 47.9211L15.2287 48.5925C13.3525 49.6575 11.4411 49.1482 10.3623 47.3192C8.54474 44.2285 6.69201 41.0568 4.851 37.9082C3.76046 36.0329 4.25296 34.1924 6.14088 33.1043C7.33694 32.4213 8.54474 31.7268 9.74081 31.0438L9.83462 30.9859L15.7329 27.629C17.8319 31.229 19.9426 34.829 22.0416 38.4291L22.065 38.4638C22.1588 38.6259 22.2644 38.7995 22.4051 38.9616C23.0148 39.6329 24.0233 39.7603 24.7386 39.2741ZM27.7991 61.8235C26.9079 62.3328 26.6617 62.2634 26.134 61.3605C23.9764 57.6678 21.8188 53.9868 19.6611 50.2941C19.6377 50.2594 19.626 50.2247 19.6025 50.19C20.7869 49.5302 21.9829 48.8356 23.1321 48.1642L23.308 48.06L27.1424 54.3919L27.3535 54.7508C28.2447 56.2788 29.1476 57.8183 30.0388 59.3463C30.4258 60.0177 30.332 60.3534 29.6753 60.747C29.2297 61.0132 28.7606 61.2795 28.3033 61.5341C28.1392 61.6267 27.9633 61.7309 27.7991 61.8235Z" fill="#FFAB4E"/>
</svg>
